<?xml version="1.0" encoding="UTF-8"?>
<svg id="_圖層_2" data-name="圖層 2" xmlns="http://www.w3.org/2000/svg" viewBox="0 0 60 60">
  <defs>
    <style>
      .cls-1 {
        fill: #e0141d;
      }

      .cls-1, .cls-2 {
        stroke-width: 0px;
      }

      .cls-2 {
        fill: #fff;
      }
    </style>
  </defs>
  <g id="_圖層_1-2" data-name="圖層 1">
    <g>
      <path class="cls-2" d="M30,60c16.6,0,30-13.4,30-30S46.6,0,30,0,0,13.4,0,30s13.4,30,30,30Z"/>
      <path class="cls-1" d="M30,1.5C14.3,1.5,1.5,14.3,1.5,30s12.8,28.5,28.5,28.5,28.5-12.8,28.5-28.5S45.7,1.5,30,1.5ZM30,58.1c-15.6,0-28.2-12.6-28.2-28.1S14.4,1.9,30,1.9s28.1,12.6,28.1,28.1-12.6,28.1-28.1,28.1Z"/>
      <path class="cls-1" d="M30,52.6c12.5,0,22.6-10.1,22.6-22.6S42.5,7.4,30,7.4,7.4,17.5,7.4,30s10.1,22.6,22.6,22.6Z"/>
      <g>
        <g>
          <path class="cls-2" d="M30,30c-10-4.2-5.6-17.3,4-16.6-1.9,1-2.2,2.9-1.1,4.6,1.2,1.9-.1,5-1.8,5.8-2.8,1.2-3.3,4.5-1.1,6.2Z"/>
          <path class="cls-2" d="M30,30c-7.1,8.2-18.2,0-14.6-8.9.3,2.2,2,3,4,2.5,2.2-.6,4.7,1.7,4.9,3.5.4,2.9,3.4,4.5,5.7,2.9Z"/>
          <path class="cls-2" d="M30,30c5.6,9.3-5.6,17.3-13,11.1,2.2.3,3.5-1,3.6-3.1.1-2.3,3-4,4.8-3.6,3,.6,5.4-1.7,4.6-4.4Z"/>
          <path class="cls-2" d="M30,30c10.6-2.5,14.7,10.7,6.5,15.8,1-1.9.1-3.6-1.8-4.4-2.1-.8-2.9-4.1-2-5.7,1.6-2.6.1-5.6-2.7-5.7Z"/>
          <path class="cls-2" d="M30,30c.9-10.8,14.7-10.6,17-1.3-1.5-1.5-3.4-1.2-4.7.4-1.5,1.8-4.8,1.4-6,.1-2-2.3-5.4-1.8-6.3.8Z"/>
        </g>
        <g>
          <polygon class="cls-1" points="29.4 20.6 28.9 21.5 28.7 20.4 27.7 20.2 28.6 19.7 28.5 18.6 29.3 19.3 30.3 18.9 29.8 19.9 30.5 20.7 29.4 20.6"/>
          <polygon class="cls-1" points="20.9 27.6 21.5 28.4 20.5 28.3 19.9 29.2 19.7 28.1 18.7 27.9 19.6 27.4 19.6 26.3 20.3 27 21.3 26.6 20.9 27.6"/>
          <polygon class="cls-1" points="24.9 37.9 25.9 37.6 25.4 38.5 26.1 39.3 25.1 39.2 24.5 40.1 24.3 39 23.3 38.8 24.2 38.3 24.1 37.2 24.9 37.9"/>
          <polygon class="cls-1" points="36 37.3 35.9 36.3 36.7 37 37.6 36.6 37.2 37.5 37.9 38.3 36.8 38.2 36.3 39.1 36.1 38.1 35 37.8 36 37.3"/>
          <polygon class="cls-1" points="38.8 26.6 37.8 26.3 38.7 25.8 38.6 24.7 39.4 25.5 40.4 25.1 39.9 26 40.6 26.8 39.5 26.7 39 27.6 38.8 26.6"/>
        </g>
        <g>
          <path class="cls-1" d="M26.9,24.7c0-1.2.3-2.5,1-3.6h0l.2.1c-.7,1.1-1,2.3-1,3.5h0c0,2.3,1.2,4.4,2.8,5.2h0l-.1.2c-1.7-.9-2.9-3.1-2.9-5.4h0Z"/>
          <path class="cls-1" d="M20.9,29.1l.2-.2c1.4,1.6,3.3,2.4,5,2.4h0c1.5,0,2.9-.5,3.8-1.4h0l.2.2c-1,1-2.4,1.5-4,1.5h0c-1.9,0-3.8-.8-5.2-2.5h0Z"/>
          <path class="cls-1" d="M26.3,38.2c2.7-1.1,4.1-3.7,4.1-6h0c0-.8-.2-1.5-.5-2.2h0l.2-.1c.3.7.5,1.5.5,2.3h0c0,2.4-1.5,5.1-4.3,6.2h0v-.2h0Z"/>
          <path class="cls-1" d="M30.7,30.1h-.7v-.2c.2,0,.5-.1.7-.1h0c2.8,0,5.9,2.5,6.2,6.2h-.2c-.3-3.5-3.4-5.9-6-5.9h0Z"/>
          <path class="cls-1" d="M29.9,30c.4-2.6,3.1-4.9,6.3-4.9h0c.5,0,1.1.1,1.7.2h0l-.1.2c-.5-.1-1.1-.2-1.6-.2h0c-3.1,0-5.7,2.2-6.1,4.6h0l-.2.1h0Z"/>
        </g>
      </g>
      <polygon class="cls-1" points="9.8 44.7 10.4 45.6 9.4 45.3 8.7 46.2 8.6 45.1 7.6 44.7 8.6 44.3 8.7 43.3 9.3 44.1 10.4 43.8 9.8 44.7"/>
      <polygon class="cls-1" points="50.2 44.7 49.7 45.6 50.7 45.3 51.3 46.2 51.4 45.1 52.4 44.8 51.5 44.3 51.4 43.3 50.7 44.1 49.7 43.8 50.2 44.7"/>
      <g>
        <path class="cls-1" d="M13.2,51.2c.4.2.4.1.7-.2l1.3-1.8c.2-.3.2-.4-.1-.6l.1-.1,1.2.8-.1.1c-.3-.2-.4-.2-.6.1l-.7.9,1.3.9.6-.8c.2-.3.2-.4-.1-.6l.1-.1,1.2.8-.1.1c-.3-.2-.4-.2-.6.1l-1.4,1.8c-.2.3-.2.4.1.6l-.1.1-1.2-.8.1-.1c.4.2.4.1.7-.2l.6-.8-1.3-.9-.6.9c-.2.3-.2.4.1.6l-.1.1-1.1-.9h0Z"/>
        <path class="cls-1" d="M17.7,52.4c.5-1.1,1.5-1.3,2.3-.9.8.4,1.3,1.3.8,2.3s-1.4,1.3-2.3.9c-.8-.4-1.2-1.3-.8-2.3ZM20.3,53.5c.5-1.1.2-1.7-.3-1.9s-1.2-.1-1.7,1c-.5,1-.2,1.7.3,1.9.5.3,1.2.1,1.7-1Z"/>
        <path class="cls-1" d="M25.4,53.4c-.3,0-.5-.1-.6.5l-.7,2.6h-.1l-1.5-3.3h0l-.5,2c-.1.5-.1.7.3.8v.1l-1.2-.3v-.1c.4.1.5,0,.7-.5l.6-2.2c-.1-.3-.2-.4-.4-.4v-.1l.9.2,1.3,2.9h0l.4-1.7c.2-.6,0-.7-.3-.8v-.1l1.1.4h0Z"/>
        <path class="cls-1" d="M29.3,55.3c-.2,0-.4,0-.4.4l-.1,1c0,.1-.7.3-1.3.3-.5,0-1.1-.2-1.4-.7-.3-.3-.4-.6-.3-1.3.1-.9.8-1.7,1.9-1.6.5,0,.7.2.9.2,0,0,.2,0,.3-.2h.1v1.1h-.1c-.1-.4-.3-.9-1.1-1-.5,0-1.3.2-1.4,1.5-.1.9.4,1.6,1.2,1.6.3,0,.7-.1.7-.2l.1-.8c0-.4-.1-.4-.4-.5v-.1l1.3.3h0Z"/>
      </g>
      <g>
        <path class="cls-1" d="M33.6,53.4l1.3-.2v.1c-.3.1-.4.1-.7.5l-.9,1.1,1.4,1.1c.4.3.6.5.9.5v.1l-1.6.2v-.1c.3,0,.4-.1.3-.2,0-.2-.6-.6-.8-.8l-.6-.5-.1.1.1,1c0,.4.1.4.5.4v.1l-1.4.2v-.1c.4-.1.4-.2.4-.6l-.3-2.2c-.1-.4-.2-.4-.5-.4v-.1l1.5-.2v.1c-.4.1-.5.1-.4.5l.1,1.1c1-1.2,1.2-1.3,1.1-1.5,0-.2-.1-.2-.3-.2h0Z"/>
        <path class="cls-1" d="M35.7,54.8c-.3-1.1.3-2,1.1-2.2s1.8.1,2.1,1.2c.3,1.1-.2,1.9-1.1,2.2-.8.3-1.7-.2-2.1-1.2ZM38.4,54c-.3-1.1-1-1.4-1.5-1.2s-.9.7-.6,1.8c.3,1.1,1,1.4,1.5,1.2.6-.1.9-.7.6-1.8Z"/>
        <path class="cls-1" d="M42.2,50.5c-.3.2-.4.3-.1.8l1.2,2.4h-.1l-3.3-1.5h0l.9,1.8c.2.5.4.5.7.4v.1l-1.1.5v-.1c.3-.2.4-.3.2-.8l-1-2c-.3-.1-.4-.1-.6,0v-.1l.8-.4,2.9,1.3h0l-.8-1.5c-.3-.5-.4-.5-.7-.4v-.1l1-.4h0Z"/>
        <path class="cls-1" d="M46.4,49.4c-.2.2-.3.2-.1.5l.6.8c0,.1-.3.7-.8,1.1-.4.3-1,.5-1.5.4-.4-.1-.7-.2-1.1-.8-.5-.7-.5-1.8.4-2.4.4-.3.7-.3.8-.4,0,0,.2-.1.1-.3l.1-.1.7.9-.1.1c-.3-.2-.9-.5-1.4,0-.4.3-.8,1,0,2.1.6.7,1.3.9,2,.4.3-.2.5-.5.4-.7l-.5-.8q-.3-.3-.6-.1l-.1-.1,1.1-.6h0Z"/>
      </g>
      <path class="cls-1" d="M7.6,37c0-.1-.1-.1-.1-.2-.1-.1-.1-.2-.2-.2h-.1l-.5.2-.8.2h0l-.2-.8h0l.2-.1s.1,0,.1-.1-.1-.1-.2-.2c-.1-.1-.2-.1-.2-.1l-.5.2-.5.1c-.1,0-.2,0-.3-.1h0l-.1.1-.2.3v.1h0l.4.2h0l.2.7h0l-.5.2c-.1,0-.2,0-.2-.1h0v.8c.1,0,.2-.1.4-.2l.6-.2h0l.1.7h0l-.1.7c.2-.1.3-.1.5-.2l.8-.2.6-.2h0v-.1s-.1-.1-.1-.2c-.1-.1-.1-.2-.2-.2h-.3l-.2-.7h0l.8-.2.7-.2q.1.1.1,0h0ZM4.8,37.3h0l-.2-.8h0l1-.3h0l.2.8h0l-1,.3ZM6.2,38.2h0l-1,.3h0l-.2-.7h0l1-.3h0l.2.7Z"/>
      <g>
        <path class="cls-1" d="M3.7,29.9h0c.1-.1,0-.2,0-.3s0-.2-.1-.2h-.3v-1.1h0l-.3.4h0v.1l.2.2h0v.4h-.3l-.1-.1h0l-.2.7h.7v.5h-.3l-.1-.1h-.1l-.3.6h.6v1.1l.1-.1c0-.1-.1-.2-.1-.3v-.7h.4v-.3c0-.1-.1-.2-.1-.2h-.1v-.5h.4v-.1Z"/>
        <path class="cls-1" d="M6.6,30.1c0-.1-.1-.2-.1-.2h-.8v-1.7h0l-.3.4h0l.3.3h0v1h-.4v-1.5h0l-.3.4v.1h0v.1h0-.5v-.9h0l-.3.4v.2l.3.2h0v.2h-.6v-.7h0l-.3.4v.1h0l.3.2h0v2.8l.1-.1v-.5h.5v.9l.1-.1v-.8h.5v.6l.1-.1c0-.1-.1-.3-.1-.4v-.9h.4v1.6l.1-.1v-1.5h.9v-.1c.1-.1.1-.2.1-.3ZM3.9,29.9v-.3h.5v.3h-.5ZM4.4,30.8h-.5v-.3h.5v.3h0ZM4.5,29.9v-.3h.5v.3h-.5ZM5.1,30.8h-.5v-.3h.5v.3h0Z"/>
      </g>
      <path class="cls-1" d="M5.2,22.9h0c.5.1,1,.1,1.4,0s.9-.3,1.3-.6c-.2-.2-.3-.5-.2-.7v-.1l-.1-.1c-.2.2-.4.4-.5.5s-.3.2-.6.3c-.2.1-.5.2-.7.2s-.5.1-.8,0c-.3,0-.5-.1-.7-.1-.1,0-.2-.1-.2-.2s-.1-.1-.1-.1h-.1l-.5.7q.1,0,.2.1c.5.2.9.3,1.4.5.5.2.9.5,1.2.9.3.4.6.8.7,1.3h.1c0-.7-.2-1.2-.4-1.6-.4-.4-.8-.8-1.4-1h0Z"/>
      <path class="cls-1" d="M11.3,15.8s0-.1,0,0q-.1-.1-.2-.1c-.2,0-.5-.1-.7-.3-.1-.1-.2-.1-.3-.2l-.1.1c.2.2.3.4.4.6h0c-.1.1-.2.2-.4.2-.2.1-.4.1-.6.1s-.4-.1-.5-.1h0l.8-1.2v-.1h-.1l-.5.1h0v.1h0l.1.4h0l-.4.6h0c-.3,0-.5,0-.6-.1h0l.3-.5h0l.2.1h.1s.1-.1.1-.3v-.2l-.4-.2-.2-.1c-.1,0-.1-.1-.1-.2h-.1l-.4.1-.1.1v.3h0l-.8,1.3h0l-.6.4c.1.1.3.2.5.3l2.1,1.3c.1,0,.1.1,0,.2v.1h.1l.6.1h.1v-.1c-.1-.1-.1-.4-.1-.8l-.1-.7h-.1c0,.2-.1.5-.2.7h0l-.9-.6h0l.4-.6h0c.2.1.3.1.5.1h.6c.2,0,.4-.1.6-.1.2-.1.4-.2.5-.3.2-.1.3-.2.3-.3v-.1q.2,0,.2-.1ZM7.4,16.8h0l-.6-.4h0l.9-1.4h0l.6.4h0l-.9,1.4h0ZM8.5,16.6l-.4.6h0l-.5-.4h0l.3-.5h0c.2.1.4.2.6.3h0Z"/>
      <g>
        <path class="cls-1" d="M15.1,10h0c-.1-.1-.6-.1-.6-.1h0v.6h0l-.3.2h0l-.7-.8h0l.8-.7h-.7v.4h0l-.2.2h0l-.4-.5q-.1-.1-.1-.2v-.1h0l-.7.3c.1,0,.2.2.3.3l.5.5h0l-.4.3h0l-.4-.4c-.1-.1-.1-.2,0-.3v-.1h-.1l-.7.4.3.3.5.6h0l-.7.6h.2c.1-.1.2-.2.2-.3l.4-.3h0l.7.8h0l-.9.8h.2c0-.1.1-.2.2-.3l2.6-2.2ZM12.7,10.6h0l.4-.4h0l.7.8h0l-.4.3h0l-.7-.7Z"/>
        <path class="cls-1" d="M13.9,11.7h-.6c.1.6,0,1.2-.2,2h.1c.4-.7.7-1.3.7-1.8h0v-.2q.1.1,0,0h0Z"/>
        <path class="cls-1" d="M15.8,11.4c0-.1-.1-.2-.1-.2-.2-.2-.4-.3-.7-.2-.3,0-.7.1-1.1.4v.1c.5-.1,1,0,1.5.2.1.1.2.1.3,0,.1-.1.1-.2.1-.3Z"/>
      </g>
      <path class="cls-1" d="M21.5,7.5l-.3-.6-.6-1.3v-.3h-.1l-.4-.1h-.1v.1h0v.3h0l-.4.2h-.6c0,.1.1.2.2.3l.1.3h0l-.3-.1h-.1v.1l-.1.4h-.1l-.3-.6h0c.2-.1.3-.2.4-.3l.1-.1h.2v-.1h0l-.6-.3c-.3.5-.8,1-1.3,1.4h0c.3-.1.5-.3.7-.4h0l.3.6h0l-.8.4.2.1c.1-.1.2-.2.3-.2l.1-.2h0c.1.6.1,1.3,0,2h.1c.2-.4.4-.9.4-1.3h0l.5,1,.2.5v.1s0,.1.1,0c.1,0,.1-.1.2-.2l.2-.2v-.1l-.1-.1-.3-.6-.4-.9h0s.1,0,.2.1.2.1.3.2q.1.1.2.1s.1,0,.1-.1v-.2h0l.3.5.2.6s0,.1.1.1h.1s.1-.1.2-.1q.1-.1.1-.2v-.1l-.2-.4h0l.4-.2h0l.2.4h.1c.1,0,.1-.1.2-.2.1-.1.2-.2.1-.3ZM19.6,7.1h0c-.2-.1-.4-.1-.8,0h0l-.1-.2h0l.6-.3h0l.3.5h0ZM20.9,7.5l-.4.2h0l-.8-1.8h0l.4-.2h0l.8,1.8h0Z"/>
      <path class="cls-1" d="M28.2,6.1l-.4-2.7h0l.1-.1v-.2l-.4-.2h-.1l-.2.3h0l-2.2.3h0l-.6-.2c0,.2.1.3.1.5l.4,2.8.1.6v.1h.1s.1,0,.2-.1c.1-.1.1-.2.1-.2v-.4h0l2.3-.3h0v.4h.1s.1,0,.2-.1.2-.1.2-.2v-.3ZM27.4,4h0v.3h0l-.5-.2c0,.3,0,.5-.1.6h0c0-.1-.1-.3-.1-.7h.7ZM26.8,3.3l.4-.1h0l.1.5h0l-.1-.1h0v-.1q0-.1-.1-.1c-.1,0-.2,0-.3-.1h0ZM26.4,3.4h0l.3-.1h0c.1,0,.1.1.2.2,0,.1.1.2.1.2h0l-.1.3h-.2v-.3h0l.1-.1h0l-.4-.2h0ZM25,4.2l-.1-.6h0l1.1-.2h0v.2l.1.4h0l-1.1.2h0ZM27.7,6.2l-2.3.3h0l-.1-.5h0s.1.1.1.2q.1.1.1.2h0s.1,0,.1-.1.1-.1.2-.2l.6-.5h0c-.4.1-.8.2-1.1.3h0l-.3-1.6h0l.1.1c.1-.1.2-.1.3-.1l.7-.1h0l.1.3v.1h0l-.2-.3h0l-.1.2h-.1l-.4-.1c0,.1,0,.2.1.3l.1.4v.5h0s.1,0,.2-.1l.1-.1h0v-.1h.1v.1h.1s.1,0,.2-.1c.1,0,.1-.1.1-.2v-.2l-.1-.4h0v-.1h0c.1.3.1.6.3.8h0c-.2.3-.4.6-.8.9h0c.4-.1.7-.4.9-.6h0c.2.4.3.5.4.6s.2.1.3.1.1-.1.1-.1c0,0,0-.1-.1-.2,0-.1-.1-.2-.1-.3v-.5h0c-.1.4-.1.5-.1.5l-.1.1h-.1l-.1-.2h0c.1-.2.2-.4.3-.8h0l.1-.1h0l.4,1.6h0ZM25.9,5.2h-.1l-.1-.5h.1l.1.5h0Z"/>
      <path class="cls-1" d="M34.2,4.4h0l1.3.2h.1v-.1l-.4-.5h-.1l-.3.3h0l-.8-.1h0v-.5h1.1l-.4-.5c-.5.1-1.4.2-2.5.3v.1c.3,0,.8.1,1.3.1h0l-.1.4h0l-1.7-.2.1.1h.4l.6.1h0c-.3.4-.8.8-1.4,1.1v.1c.5-.1.8-.2,1-.3h0v.5l-.1.8-.1.4h.4c.1,0,.1-.1.1-.1v-.3h0l1,.1h0v.3l.1.1h.3c.1,0,.2-.1.2-.1v-.4l.1-.9s0-.1.1-.1h.1c.1.1.3.2.3.2.1-.1.2-.2.2-.3.1,0,.2-.1.3,0h.1v-.1c-.4.1-.9-.3-1.3-.7ZM34,6l-.1.5h0l-1-.1h0l.1-.5h0l1,.1h0ZM34.1,5.4l-.1.5h0l-1-.1h0v-.5h0l1.1.1h0ZM34.4,5.2h-.1l-.3.1h0l-1-.1h0l-.3-.2h0c.2-.1.4-.3.6-.5h0v.3l-.1.5h.4c.2,0,.2-.1.2-.1v-.7h0c.2.2.4.4.6.7h0Z"/>
      <g>
        <g>
          <path class="cls-1" d="M42.4,6.4q0-.1,0,0-.1-.1-.1,0l-.3.1h-.1l.2-.5.1-.1h.1l-.1-.1-.5-.4c0,.1-.1.3-.1.3l-.2.4h0l-.3-.1h0l.2-.4.1-.1h.1l-.1-.1-.4-.3c0,.1-.1.3-.1.3l-.2.4h0l-.4-.2.1.2c.1,0,.2,0,.3.1h.1l-.3.6h0l-.5-.2h0l.3-.4h0c-.3.2-.5.5-.8.6-.3.2-.4.3-.5.3s-.2,0-.3-.1c0,0-.1,0-.1-.1v.1c.1.1.2.2.2.3v.2c0,.1-.1.2-.2.3-.1.1-.1.2-.2.2v.3c0,.1.1.2.2.3.1.1.2,0,.3-.2.1-.1.1-.3.1-.4s.1-.2.1-.3h0c.3,0,.6,0,.8-.1h0l-.4.8v.3c0,.1.1.2.3.3.1.1.2.2.4.3.4.2.6.3.8.3s.3-.1.5-.2c-.1-.1-.2-.3-.2-.4s0-.2.1-.3h0s-.1.1-.1.2c-.1.1-.1.2-.2.2h-.2c-.1,0-.2-.1-.4-.2-.2-.1-.3-.2-.4-.2v-.2l.1-.3h0l.5.1h0l-.1.1h.1c.1,0,.2.1.3,0q.2,0,.2-.1h.1c.1.1.2.3.3.4.2-.2.4-.2.6-.2h0c-.5-.3-.7-.7-.8-1.1h0l.9.4h0l-.2-.4h0l-.3.2h0l-.2-.1h0l.3-.5h0l.6.3h.1v-.1c-.1-.2-.2-.5-.2-.5ZM39.1,7.3h0c.1-.3.4-.6.7-.9h0v.1q.1,0,.2.1l.1.1h0c-.1.2-.5.4-1,.6ZM40.9,7.5l-.2.4h0l-.5-.2h0l.2-.4h0l.5.2h0ZM41.2,7v.4h-.2l-.4-.2h0l-.1-.1h0s.1-.1.4-.2h0l.3.1h0ZM41.4,6.3l-.3.5h0l-.3-.1h0l.3-.6h0l.3.2h0Z"/>
          <path class="cls-1" d="M39.8,5.3c0,.2,0,.3.1.3h.2c.1,0,.1-.1.2-.2.1-.2-.1-.4-.5-.8h-.1l.1.2v.5Z"/>
          <path class="cls-1" d="M39.1,5.8v.4s0,.1.1.1h.2q.1-.1.2-.2v-.3c0-.1-.2-.3-.5-.5h-.1c.1.1.1.3.1.5Z"/>
        </g>
        <g>
          <path class="cls-1" d="M48.6,10.8q0-.1,0,0-.1-.1,0,0h-.4l-.2-.2h0l.3-.4h.2v-.1l-.4-.6c-.1.2-.3.5-.3.5l-.2.3h0l-.6-.5v.2c.1,0,.2.1.2.1l.3.2h0l-.4.5h0l-.6-.5v.2c.1,0,.2.1.3.2l.6.5h0l-.2.3-.2.1h0l-1-.8v.2c.1,0,.2.1.2.2l.7.6h0l-.7.8h-.1s-.1,0-.1-.1c-.1-.1-.2-.2-.3-.4l-.1.1c.1.1.1.2.1.3s.1.2.1.2c0,0-.1.1-.1.3.1,0,.3.1.3.1h.2c.1,0,.2,0,.3-.1l.8-.9h0l.5.5h0v-.6h-.4s-.1,0-.1,0h0l.1-.2h.2l-.4-.5h0l.9.8h0l-.1-.5h-.1l-.4.1h0l-.4-.3h0l.4-.5h0l.7.6h0c.4-.3.4-.7.4-.7Z"/>
          <path class="cls-1" d="M45.9,10.6h0l.6.1v-.1l-.4-.2h0l.3-.4h0l.4.3h.1v-.4h-.1l-.2.1h0l.6-.6h.2v-.1l-.4-.7c-.1.1-.2.3-.2.3l-.1.2h0l-.2-.4c-.4.4-.8.8-1.4,1.1v.1c.3,0,.6-.1,1-.3h0l.1.1h0l-.5.6h0l-.9-.3c0,.1-.2.5-.2.5v.1h.7l-.5.6-.3.4v.2s.1.1.3.1h.3l.3-.4.5-.9h0ZM46,9.5h0s.1-.1.3-.3h.1l-.3.3h-.1Z"/>
          <path class="cls-1" d="M45.8,12q.1.1.2.1c.1,0,.2-.1.2-.1.1-.1.1-.2.1-.3s-.1-.3-.2-.5h-.1c0,.2-.1.3-.2.5v.3Z"/>
        </g>
        <g>
          <path class="cls-1" d="M53.6,16.3c-.1.1-.2.2-.3.3l-2.4,1.5h-.2c0-.1-.1-.2-.2-.5h-.1c0,.2.1.3.1.4s-.1.2-.3.3c.3.3.6.4.9.2l2.5-1.6h.3l-.3-.6Z"/>
          <path class="cls-1" d="M51,16.7h.3l.1-.4v-.1h-.1l-.3-.1h0l-.2-.3h0l.2-.1h0l.1.1h.1v-.1l-.1-.5h.1l.4.6h0l-.2.1h0s.1.1.2.2c.1.1.2.1.2.1h.1l.3-.2.4-.2c.1-.1.2-.1.3,0h.1v-.6h-.1l-.3-.1h0l-.3-.4h0l-.3-.7c-.1.1-.2.1-.4.2l-.6.4-.4.3h0c0,.1.1.1.2.2h0l-.3.2c-.3.2-.6.3-.9.3-.3.1-.7.1-1,0v.1c.7.3,1.4.3,2.1.1h0l.2.3h0c-.2.1-.4.2-.7.3l-.4.2s-.1,0-.1-.1-.1-.2-.2-.5h-.1v.4c0,.1-.1.1-.2.2.1.1.1.2.2.2q.1.1.2.2c.1,0,.2.1.2.1.1,0,.2-.1.5-.2.2.1.5,0,.7-.2ZM51.3,15.1l.7-.4h0l.4.6h0l-.7.4h0l-.4-.6h0Z"/>
          <path class="cls-1" d="M52.9,16.6s0-.1,0,0l-.1-.7s-.1.1-.2.1q-.1.1-.2.1l-1.3.9-.5.3h0v.1l.2.2c.1.1.2.1.3.1l.4-.3,1.2-.7c0-.2.1-.2.2-.1h0Z"/>
        </g>
      </g>
      <g>
        <path class="cls-1" d="M54,22.3c.1,0,.2,0,.2.1h.1v-.2h0q.2.1.3.1h0c.1.1.2.1.2.2h0v-.1l.2-.7h0c.3.1.4.3.5.4h0v-.1l.2-.6c-.7-.1-1.2-.3-1.6-.5v.1c.3.3.5.5.8.7h0c-.7,0-1.4-.2-2-.5h.1c.3.2.5.4.7.5h0l-1.1.3-.5.1h0v.1c0,.1.1.2.1.3q.1.1.2.1l.5-.2,1.1-.1Z"/>
        <path class="cls-1" d="M56.4,23.6h0l-.4-.2h0l-.4-1.2-.1.2c.1.1.1.2.1.3l.4,1.4v.1h0v-.1l.4-.5q0,.1,0,0Z"/>
        <path class="cls-1" d="M55.5,24.2l-.4-.2h0l-.5-1.7-.1.1c.1.1.1.2.2.3l.2.7h0l-1.6.5h-.1s-.1,0-.1-.1c0,0,0-.2-.1-.6h-.1c0,.4-.2.6-.4.7.2.4.4.5.7.5l1.8-.4h0l.2.7h0l.2-.4q.2,0,.1-.1c.1,0,0,0,0,0Z"/>
      </g>
      <path class="cls-1" d="M55.7,30.1h0l.2-.2h0l-.2-.2h-.1,1v.5h0l.4-.4h0l-.4-.3h0v-1.3l-.1.1c0,.1.1.2.1.3v.6h-2.1v-.1h1.2q.1,0,.1.1h.1l.2-.6h-1.7l-.1-.4c-.1,0-.5.2-.5.2-.1,0-.1.1-.1.1l.1.1.1.1s0,.1.1.2.1.3.2.6l.4,1.1h.1l-.2-.7h1v.1h0c-.2-.1-.5-.2-.7-.3h0c.2.2.4.4.7.5h0c-.4,0-.7.1-.9.2h0c-.5-.4-.9-.9-1.1-1.5h0c.2.8.5,1.4.8,1.7h0c-.2.2-.5.4-.7.6.2.2.4.4.4.7h.1c.2-.5.4-.9.6-1.1h0c.3.2.7.3,1.2.4h0c.1,0,.1.1.2.2h0l.1-.2h0v.5h0l.4-.4v-.1h0l-.4-.3h0v-.5h0s.1,0,.3.1.3.1.4.1c0,0,.1,0,.1.1,0,0,0,.1.1.1h0l.2-.7c-.5.3-1,.2-1.6,0ZM56.1,31.1c-.5,0-.9-.1-1.2-.1h0c.1-.1.4-.2.7-.3h0c.2.1.3.2.4.2h0l.1.2h0Z"/>
      <g>
        <path class="cls-1" d="M56,36.1l-2.5-.7c-.1,0-.2-.1-.2-.2h0l-.4.3v.2h0l.1.3h0l-.8,2.9h0l.4-.3h0l-.2-.3h0l.7-2.3h0l2.9.9h0l-.8,2.8h0l.5-.3h0v-.1l-.3-.4h0l.6-1.9h0l.4-.5c0-.3-.4-.4-.4-.4Z"/>
        <path class="cls-1" d="M55.4,38.5h0l-.2-.4h0l.2-.6h0l.4-.5c-.1,0-.4-.1-.4-.1l-.4-.1-.4-.1h0v.3c0,.1,0,.2.1.2h.1l-.3.8h-.2v.4h.3l.3.1h0l.1.1h0c0,.2.3,0,.4-.1-.1.1,0,0,0,0ZM55.1,38.2h0l-.5-.1h0l.2-.7h0l.5.1h0l-.2.7h0Z"/>
        <path class="cls-1" d="M54,38.3h0v-.2h0l.4-.4h-.2l.3-.3h0l-.2-.2h0l.1-.2h0l.4-.4c-.1,0-.4-.1-.4-.1l-.7-.2-.5-.3h0v.3c0,.1,0,.2.1.2l.3.1h0l-.1.2h-.1l-.4-.1h0v.4h0l.4.1.6.2h0l.1.2h0l-.7-.2-.4-.2h0v.4s0,.1.1.1l.2.1h0l-.3.2h-.2v.4h.1l.3.1.5.1h0v.1h0l.4-.3h0l-.1-.1ZM53.5,36.8h0v-.2h0l.7.2h0v.2h0l-.7-.2ZM53.9,38.1l-.1.2h0l-.7-.2h0l.1-.2h0l.7.2h0Z"/>
      </g>
    </g>
  </g>
</svg>