<?xml version="1.0" encoding="utf-8"?>
<!-- Generator: Adobe Illustrator 28.1.0, SVG Export Plug-In . SVG Version: 6.00 Build 0)  -->
<svg version="1.1" id="圖層_1" xmlns="http://www.w3.org/2000/svg" xmlns:xlink="http://www.w3.org/1999/xlink" x="0px" y="0px"
	 viewBox="0 0 303.6 60" style="enable-background:new 0 0 303.6 60;" xml:space="preserve">
<style type="text/css">
	.st0{fill:#FFFFFF;}
	.st1{fill:#E0141D;}
	.st2{fill:#0F0F0D;}
</style>
<g>
	<g>
		<g>
			<path class="st0" d="M30,60c16.6,0,30-13.4,30-30C60,13.4,46.6,0,30,0C13.4,0,0,13.4,0,30C0,46.6,13.4,60,30,60z"/>
			<path class="st1" d="M30,1.5C14.3,1.5,1.5,14.3,1.5,30c0,15.7,12.8,28.5,28.5,28.5c15.7,0,28.5-12.8,28.5-28.5
				C58.5,14.3,45.7,1.5,30,1.5z M30,58.1C14.4,58.1,1.8,45.5,1.8,30C1.8,14.5,14.4,1.9,30,1.9c15.5,0,28.1,12.6,28.1,28.1
				C58.1,45.5,45.5,58.1,30,58.1z"/>
			<path class="st1" d="M30,52.6c12.5,0,22.6-10.1,22.6-22.6C52.6,17.5,42.5,7.4,30,7.4C17.5,7.4,7.4,17.5,7.4,30
				C7.4,42.5,17.5,52.6,30,52.6z"/>
			<g>
				<g>
					<path class="st0" d="M30,30c-10-4.2-5.6-17.3,4-16.6c-1.9,1-2.2,2.9-1.1,4.6c1.2,1.9-0.1,5-1.8,5.8C28.3,25,27.8,28.3,30,30z"
						/>
					<path class="st0" d="M30,30c-7.1,8.2-18.2,0-14.6-8.9c0.3,2.2,2,3,4,2.5c2.2-0.6,4.7,1.7,4.9,3.5C24.7,30,27.7,31.6,30,30z"/>
					<path class="st0" d="M30,30c5.6,9.3-5.6,17.3-13,11.1c2.2,0.3,3.5-1,3.6-3.1c0.1-2.3,3-4,4.8-3.6C28.4,35,30.8,32.7,30,30z"/>
					<path class="st0" d="M30,30c10.6-2.5,14.7,10.7,6.5,15.8c1-1.9,0.1-3.6-1.8-4.4c-2.1-0.8-2.9-4.1-2-5.7
						C34.3,33.1,32.8,30.1,30,30z"/>
					<path class="st0" d="M30,30c0.9-10.8,14.7-10.6,17-1.3c-1.5-1.5-3.4-1.2-4.7,0.4c-1.5,1.8-4.8,1.4-6,0.1
						C34.3,26.9,30.9,27.4,30,30z"/>
				</g>
				<g>
					<polygon class="st1" points="29.4,20.6 28.9,21.5 28.7,20.4 27.7,20.2 28.6,19.7 28.5,18.6 29.3,19.3 30.3,18.9 29.8,19.9 
						30.5,20.7 					"/>
					<polygon class="st1" points="20.9,27.6 21.5,28.4 20.5,28.3 19.9,29.2 19.7,28.1 18.7,27.9 19.6,27.4 19.6,26.3 20.3,27 
						21.3,26.6 					"/>
					<polygon class="st1" points="24.9,37.9 25.9,37.6 25.4,38.5 26.1,39.3 25.1,39.2 24.5,40.1 24.3,39 23.3,38.8 24.2,38.3 
						24.1,37.2 					"/>
					<polygon class="st1" points="36,37.3 35.9,36.3 36.7,37 37.6,36.6 37.2,37.5 37.9,38.3 36.8,38.2 36.3,39.1 36.1,38.1 35,37.8 
											"/>
					<polygon class="st1" points="38.8,26.6 37.8,26.3 38.7,25.8 38.6,24.7 39.4,25.5 40.4,25.1 39.9,26 40.6,26.8 39.5,26.7 
						39,27.6 					"/>
				</g>
				<g>
					<path class="st1" d="M26.9,24.7c0-1.2,0.3-2.5,1-3.6l0,0l0.2,0.1c-0.7,1.1-1,2.3-1,3.5l0,0c0,2.3,1.2,4.4,2.8,5.2l0,0l0,0
						l-0.1,0.2C28.1,29.2,26.9,27,26.9,24.7L26.9,24.7z"/>
					<path class="st1" d="M20.9,29.1l0.2-0.2c1.4,1.6,3.3,2.4,5,2.4l0,0c1.5,0,2.9-0.5,3.8-1.4l0,0l0,0l0.2,0.2c-1,1-2.4,1.5-4,1.5
						l0,0C24.2,31.6,22.3,30.8,20.9,29.1L20.9,29.1z"/>
					<path class="st1" d="M26.3,38.2c2.7-1.1,4.1-3.7,4.1-6l0,0c0-0.8-0.2-1.5-0.5-2.2l0,0l0.2-0.1c0.3,0.7,0.5,1.5,0.5,2.3l0,0
						c0,2.4-1.5,5.1-4.3,6.2l0,0L26.3,38.2L26.3,38.2z M29.9,30.1L29.9,30.1L29.9,30.1L29.9,30.1L29.9,30.1L29.9,30.1z"/>
					<path class="st1" d="M30.7,30.1c-0.2,0-0.4,0-0.7,0l0,0l0-0.2c0.2,0,0.5-0.1,0.7-0.1l0,0c2.8,0,5.9,2.5,6.2,6.2l0,0l-0.2,0
						C36.4,32.5,33.3,30.1,30.7,30.1L30.7,30.1z"/>
					<path class="st1" d="M29.9,30c0.4-2.6,3.1-4.9,6.3-4.9l0,0c0.5,0,1.1,0.1,1.7,0.2l0,0l0,0l-0.1,0.2c-0.5-0.1-1.1-0.2-1.6-0.2
						l0,0c-3.1,0-5.7,2.2-6.1,4.6l0,0L29.9,30L29.9,30z"/>
				</g>
			</g>
			<polygon class="st1" points="9.8,44.7 10.4,45.6 9.4,45.3 8.7,46.2 8.6,45.1 7.6,44.7 8.6,44.3 8.7,43.3 9.3,44.1 10.4,43.8 			
				"/>
			<polygon class="st1" points="50.2,44.7 49.7,45.6 50.7,45.3 51.3,46.2 51.4,45.1 52.4,44.8 51.5,44.4 51.4,43.3 50.7,44.1 
				49.7,43.8 			"/>
			<g>
				<path class="st1" d="M13.2,51.2c0.4,0.2,0.4,0.1,0.7-0.2l1.3-1.8c0.2-0.3,0.2-0.4-0.1-0.6l0.1-0.1l1.2,0.8l-0.1,0.1
					c-0.3-0.2-0.4-0.2-0.6,0.1L15,50.4l1.3,0.9l0.6-0.8c0.2-0.3,0.2-0.4-0.1-0.6l0.1-0.1l1.2,0.8l-0.1,0.1c-0.3-0.2-0.4-0.2-0.6,0.1
					L16,52.6c-0.2,0.3-0.2,0.4,0.1,0.6L16,53.3l-1.2-0.8l0.1-0.1c0.4,0.2,0.4,0.1,0.7-0.2l0.6-0.8l-1.3-0.9l-0.6,0.9
					c-0.2,0.3-0.2,0.4,0.1,0.6l-0.1,0.1L13.2,51.2L13.2,51.2z"/>
				<path class="st1" d="M17.7,52.4c0.5-1.1,1.5-1.3,2.3-0.9c0.8,0.4,1.3,1.3,0.8,2.3c-0.5,1-1.4,1.3-2.3,0.9
					C17.7,54.3,17.3,53.4,17.7,52.4z M20.3,53.5c0.5-1.1,0.2-1.7-0.3-1.9c-0.5-0.2-1.2-0.1-1.7,1c-0.5,1-0.2,1.7,0.3,1.9
					C19.1,54.8,19.8,54.6,20.3,53.5z"/>
				<path class="st1" d="M25.4,53.4c-0.3,0-0.5-0.1-0.6,0.5l-0.7,2.6l-0.1,0l-1.5-3.3l0,0l-0.5,2c-0.1,0.5-0.1,0.7,0.3,0.8l0,0.1
					l-1.2-0.3l0-0.1c0.4,0.1,0.5,0,0.7-0.5l0.6-2.2c-0.1-0.3-0.2-0.4-0.4-0.4l0-0.1l0.9,0.2l1.3,2.9l0,0l0.4-1.7
					c0.2-0.6,0-0.7-0.3-0.8l0-0.1L25.4,53.4L25.4,53.4z"/>
				<path class="st1" d="M29.3,55.3c-0.2,0-0.4,0-0.4,0.4l-0.1,1c0,0.1-0.7,0.3-1.3,0.3c-0.5,0-1.1-0.2-1.4-0.7
					c-0.3-0.3-0.4-0.6-0.3-1.3c0.1-0.9,0.8-1.7,1.9-1.6c0.5,0,0.7,0.2,0.9,0.2c0,0,0.2,0,0.3-0.2l0.1,0l0,1.1l-0.1,0
					c-0.1-0.4-0.3-0.9-1.1-1c-0.5,0-1.3,0.2-1.4,1.5c-0.1,0.9,0.4,1.6,1.2,1.6c0.3,0,0.7-0.1,0.7-0.2l0.1-0.8c0-0.4-0.1-0.4-0.4-0.5
					l0-0.1L29.3,55.3L29.3,55.3z"/>
			</g>
			<g>
				<path class="st1" d="M33.6,53.4l1.3-0.2l0,0.1c-0.3,0.1-0.4,0.1-0.7,0.5l-0.9,1.1l1.4,1.1c0.4,0.3,0.6,0.5,0.9,0.5l0,0.1
					L34,56.8l0-0.1c0.3,0,0.4-0.1,0.3-0.2c0-0.2-0.6-0.6-0.8-0.8l-0.6-0.5l-0.1,0.1l0.1,1c0,0.4,0.1,0.4,0.5,0.4l0,0.1L32,57l0-0.1
					c0.4-0.1,0.4-0.2,0.4-0.6l-0.3-2.2c-0.1-0.4-0.2-0.4-0.5-0.4l0-0.1l1.5-0.2l0,0.1c-0.4,0.1-0.5,0.1-0.4,0.5l0.1,1.1
					c1-1.2,1.2-1.3,1.1-1.5C33.9,53.4,33.8,53.4,33.6,53.4L33.6,53.4z"/>
				<path class="st1" d="M35.7,54.8c-0.3-1.1,0.3-2,1.1-2.2c0.8-0.2,1.8,0.1,2.1,1.2c0.3,1.1-0.2,1.9-1.1,2.2
					C37,56.3,36.1,55.8,35.7,54.8z M38.4,54c-0.3-1.1-1-1.4-1.5-1.2c-0.5,0.2-0.9,0.7-0.6,1.8c0.3,1.1,1,1.4,1.5,1.2
					C38.4,55.7,38.7,55.1,38.4,54z"/>
				<path class="st1" d="M42.2,50.5c-0.3,0.2-0.4,0.3-0.1,0.8l1.2,2.4l-0.1,0l-3.3-1.5l0,0l0.9,1.8c0.2,0.5,0.4,0.5,0.7,0.4l0,0.1
					l-1.1,0.5l0-0.1c0.3-0.2,0.4-0.3,0.2-0.8l-1-2c-0.3-0.1-0.4-0.1-0.6,0l0-0.1l0.8-0.4l2.9,1.3l0,0l-0.8-1.5
					c-0.3-0.5-0.4-0.5-0.7-0.4l0-0.1L42.2,50.5L42.2,50.5z"/>
				<path class="st1" d="M46.4,49.4c-0.2,0.2-0.3,0.2-0.1,0.5l0.6,0.8c0,0.1-0.3,0.7-0.8,1.1c-0.4,0.3-1,0.5-1.5,0.4
					c-0.4-0.1-0.7-0.2-1.1-0.8c-0.5-0.7-0.5-1.8,0.4-2.4c0.4-0.3,0.7-0.3,0.8-0.4c0,0,0.2-0.1,0.1-0.3l0.1-0.1l0.7,0.9l-0.1,0.1
					c-0.3-0.2-0.9-0.5-1.4,0c-0.4,0.3-0.8,1,0,2.1c0.6,0.7,1.3,0.9,2,0.4c0.3-0.2,0.5-0.5,0.4-0.7L46,50.2c-0.3-0.3-0.3-0.3-0.6-0.1
					l-0.1-0.1L46.4,49.4L46.4,49.4z"/>
			</g>
			<g>
				<path class="st1" d="M7.6,37c0-0.1-0.1-0.1-0.1-0.2c-0.1-0.1-0.1-0.2-0.2-0.2c0,0-0.1,0-0.1,0l-0.5,0.2L5.9,37l0,0l0,0l-0.2-0.8
					l0,0l0,0l0.2-0.1c0,0,0.1,0,0.1-0.1c0-0.1-0.1-0.1-0.2-0.2c-0.1-0.1-0.2-0.1-0.2-0.1l-0.5,0.2l-0.5,0.1c-0.1,0-0.2,0-0.3-0.1
					c0,0,0,0,0,0c0,0,0,0-0.1,0.1L4,36.3c0,0,0,0,0,0.1c0,0,0,0,0,0l0.4,0.2l0,0l0,0l0.2,0.7l0,0l0,0l-0.5,0.2c-0.1,0-0.2,0-0.2-0.1
					c0,0,0,0,0,0c0,0,0,0,0,0l0,0.8c0.1,0,0.2-0.1,0.4-0.2l0.6-0.2l0,0l0,0L5,38.5v0v0l-0.1,0.7c0.2-0.1,0.3-0.1,0.5-0.2l0.8-0.2
					l0.6-0.2c0,0,0,0,0,0c0,0,0,0,0-0.1c0,0-0.1-0.1-0.1-0.2c-0.1-0.1-0.1-0.2-0.2-0.2c0,0-0.1,0-0.1,0l-0.2,0l0,0l0,0l-0.2-0.7l0,0
					l0,0l0.8-0.2l0.7-0.2C7.6,37.1,7.6,37.1,7.6,37C7.6,37,7.6,37,7.6,37z M4.8,37.3L4.8,37.3L4.8,37.3l-0.2-0.8l0,0l0,0l1-0.3l0,0
					l0,0L5.8,37l0,0l0,0L4.8,37.3z M6.2,38.2L6.2,38.2L6.2,38.2l-1,0.3l0,0l0,0l-0.2-0.7l0,0l0,0l1-0.3l0,0l0,0L6.2,38.2z"/>
			</g>
			<path class="st0" d="M3.3,31.9L3.3,31.9C3.3,31.9,3.3,32,3.3,31.9L3.3,31.9z"/>
			<g>
				<polygon class="st1" points="5.2,31.8 5.2,31.8 5.2,31.8 				"/>
				<polygon class="st0" points="5.8,31.9 5.7,31.9 5.7,31.9 				"/>
				<polygon class="st0" points="4.6,32.1 4.6,32.1 4.6,32.1 				"/>
				<path class="st1" d="M4,31.8L4,31.8C4,31.8,4,31.8,4,31.8L4,31.8z"/>
			</g>
			<g>
				<polygon class="st1" points="2.7,30.4 2.7,30.4 2.7,30.4 				"/>
				<polygon class="st1" points="2.8,30.3 2.8,30.3 2.8,30.3 				"/>
				<polygon class="st1" points="3.2,28.2 3.2,28.2 3.2,28.2 				"/>
				<path class="st1" d="M3.7,29.9C3.7,29.9,3.7,29.9,3.7,29.9c0.1-0.1,0-0.2,0-0.3c0-0.1,0-0.2-0.1-0.2c0,0-0.1,0-0.1,0l-0.2,0h0v0
					v-1.1c0,0,0,0,0,0c0,0,0,0,0,0c0,0,0,0,0,0c0,0-0.3,0.4-0.3,0.4c0,0,0,0,0,0c0,0,0,0,0,0.1L3.2,29l0,0v0v0.4v0h0H2.9h0l0,0
					l-0.1-0.1c0,0,0,0,0,0c0,0,0,0,0,0l-0.2,0.7c0.1,0,0.4,0,0.4,0l0.3,0h0v0l0,0.5v0h0l-0.3,0h0l0,0c-0.1-0.1-0.1-0.1-0.1-0.1
					c0,0,0,0,0,0c0,0,0,0-0.1,0L2.5,31c0.1,0,0.3,0,0.3,0h0.3h0v0v1.1l0.1-0.1c0-0.1-0.1-0.2-0.1-0.3V31v0h0l0.2,0l0.2,0
					c0,0,0,0,0,0c0,0,0,0,0-0.1c0-0.1,0-0.1,0-0.2c0-0.1-0.1-0.2-0.1-0.2c0,0,0,0-0.1,0H3.3h0v0v-0.5v0h0H3.7z"/>
				<polygon class="st1" points="2.7,29.2 2.7,29.2 2.7,29.2 				"/>
				<polygon class="st1" points="4.5,28.2 4.5,28.2 4.5,28.2 				"/>
				<path class="st1" d="M6.6,30.1c0-0.1-0.1-0.2-0.1-0.2l-0.3,0H5.7h0v0l0-1.7c0,0,0,0,0,0c0,0,0,0,0,0l-0.3,0.4c0,0,0,0,0,0
					c0,0,0,0,0,0l0.3,0.3l0,0v0l0,1v0h0l-0.4,0h0v0v-1.5c0,0,0,0,0,0c0,0,0,0,0,0c0,0,0,0,0,0l-0.3,0.4c0,0,0,0,0,0.1c0,0,0,0,0,0
					L5,29l0,0v0v0v0h0l-0.5,0h0v0l0-0.9c0,0,0,0,0,0c0,0,0,0,0,0c0,0-0.3,0.4-0.3,0.4c0,0,0,0,0,0.1c0,0,0,0,0,0.1l0.3,0.2l0,0v0
					v0.2v0h0H3.9h0v0v-0.7c0,0,0,0,0,0c0,0,0,0,0,0l-0.3,0.4c0,0,0,0,0,0.1c0,0,0,0,0,0l0.3,0.2l0,0v0l0,2.8l0.1-0.1
					c0-0.1,0-0.2,0-0.3v-0.2v0h0l0.5,0h0v0v0.9l0.1-0.1c0-0.1,0-0.3,0-0.4v-0.4v0h0l0.5,0h0v0v0.6l0.1-0.1c0-0.1-0.1-0.3-0.1-0.4
					v-0.9v0h0h0.4h0v0l0,1.6l0.1-0.1c0-0.1,0-0.3,0-0.4l0-1.1v0h0l0.4,0l0.4,0c0.1,0,0.1,0,0.1,0c0,0,0,0,0-0.1
					C6.6,30.3,6.6,30.2,6.6,30.1z M3.9,29.9v-0.3v0h0l0.5,0h0v0v0.3v0h0L3.9,29.9L3.9,29.9L3.9,29.9z M4.4,30.8l-0.5,0h0v0v-0.3v0h0
					l0.5,0h0v0L4.4,30.8L4.4,30.8L4.4,30.8z M4.5,29.9v-0.3v0h0l0.5,0h0v0l0,0.3v0h0L4.5,29.9L4.5,29.9L4.5,29.9z M5.1,30.8l-0.5,0
					h0v0l0-0.3v0h0l0.5,0h0v0L5.1,30.8L5.1,30.8L5.1,30.8z"/>
			</g>
			<g>
				<path class="st1" d="M5.2,22.9L5.2,22.9L5.2,22.9c0.5,0.1,1,0.1,1.4,0c0.4-0.1,0.9-0.3,1.3-0.6c-0.2-0.2-0.3-0.5-0.2-0.7
					c0,0,0-0.1,0-0.1l-0.1-0.1c-0.2,0.2-0.4,0.4-0.5,0.5c-0.1,0.1-0.3,0.2-0.6,0.3c-0.2,0.1-0.5,0.2-0.7,0.2c-0.2,0-0.5,0.1-0.8,0
					c-0.3,0-0.5-0.1-0.7-0.1c-0.1,0-0.2-0.1-0.2-0.2c0-0.1-0.1-0.1-0.1-0.1c0,0,0,0-0.1,0l-0.5,0.7c0.1,0,0.1,0,0.2,0.1
					C4.1,23,4.5,23.1,5,23.3c0.5,0.2,0.9,0.5,1.2,0.9c0.3,0.4,0.6,0.8,0.7,1.3l0.1,0c0-0.7-0.2-1.2-0.4-1.6
					C6.2,23.5,5.8,23.1,5.2,22.9L5.2,22.9L5.2,22.9L5.2,22.9z"/>
			</g>
			<path class="st1" d="M8.9,18.7L8.9,18.7C8.9,18.6,8.9,18.6,8.9,18.7L8.9,18.7z"/>
			<g>
				<polygon class="st1" points="9.6,14.8 9.6,14.8 9.6,14.8 				"/>
				<path class="st1" d="M11.3,15.8C11.3,15.8,11.3,15.7,11.3,15.8c-0.1-0.1-0.1-0.1-0.2-0.1c-0.2,0-0.5-0.1-0.7-0.3
					c-0.1-0.1-0.2-0.1-0.3-0.2L10,15.3c0.2,0.2,0.3,0.4,0.4,0.6l0,0l0,0l0,0c-0.1,0.1-0.2,0.2-0.4,0.2c-0.2,0.1-0.4,0.1-0.6,0.1
					c-0.2,0-0.4-0.1-0.5-0.1l0,0l0,0l0.8-1.2c0,0,0-0.1,0-0.1c0,0,0,0-0.1,0c0,0-0.5,0.1-0.5,0.1c0,0,0,0,0,0c0,0,0,0,0,0.1v0l0,0
					l0.1,0.4l0,0l0,0l-0.4,0.6l0,0l0,0C8.5,16,8.3,16,8.2,15.9l0,0l0,0l0.3-0.5l0,0l0,0l0.2,0.1c0,0,0.1,0,0.1,0
					c0,0,0.1-0.1,0.1-0.3c0-0.1,0-0.2,0-0.2l-0.4-0.2l-0.2-0.1c-0.1,0-0.1-0.1-0.1-0.2v0v0c0,0,0,0,0,0c0,0,0,0-0.1,0l-0.4,0.1
					c0,0,0,0-0.1,0.1c0,0,0,0,0,0.1L7.6,15v0v0l-0.8,1.3l0,0l0,0l-0.6,0.4c0.1,0.1,0.3,0.2,0.5,0.3l2.1,1.3c0.1,0,0.1,0.1,0,0.2
					c0,0,0,0.1,0,0.1c0,0,0,0,0.1,0c0,0,0.6,0.1,0.6,0.1c0,0,0,0,0.1,0c0,0,0-0.1,0-0.1c-0.1-0.1-0.1-0.4-0.1-0.8l-0.1-0.7l-0.1,0
					c0,0.2-0.1,0.5-0.2,0.7l0,0l0,0l-0.9-0.6l0,0l0,0l0.4-0.6l0,0l0,0c0.2,0.1,0.3,0.1,0.5,0.1c0.2,0,0.4,0,0.6,0
					c0.2,0,0.4-0.1,0.6-0.1c0.2-0.1,0.4-0.2,0.5-0.3c0.2-0.1,0.3-0.2,0.3-0.3l0-0.1C11.3,15.9,11.3,15.9,11.3,15.8z M7.4,16.8
					L7.4,16.8l-0.6-0.4l0,0l0,0l0.9-1.4l0,0l0,0l0.6,0.4l0,0l0,0L7.4,16.8L7.4,16.8z M8.5,16.6l-0.4,0.6l0,0l0,0l-0.5-0.4l0,0l0,0
					l0.3-0.5l0,0l0,0C8.1,16.4,8.3,16.5,8.5,16.6L8.5,16.6L8.5,16.6z"/>
			</g>
			<g>
				<polygon class="st1" points="12.9,9 12.9,9 12.9,9 				"/>
				<path class="st1" d="M15.1,10C15.1,10,15.1,10,15.1,10C15.1,10,15.1,10,15.1,10C15.1,10,15.1,10,15.1,10
					c-0.1-0.1-0.6-0.1-0.6-0.1c0,0,0,0,0,0c0,0,0,0,0,0.1l0,0.5v0l0,0l-0.3,0.2l0,0l0,0l-0.7-0.8l0,0l0,0l0.8-0.7c0,0,0,0,0,0
					s0,0,0,0c0,0,0,0-0.1,0l-0.5,0c0,0,0,0-0.1,0c0,0,0,0,0,0v0v0l0,0.4v0l0,0l-0.2,0.2l0,0l0,0L13,9.3c-0.1-0.1-0.1-0.1-0.1-0.2
					c0-0.1,0-0.1,0-0.1c0,0,0,0,0,0l-0.7,0.3c0.1,0,0.2,0.2,0.3,0.3l0.5,0.5l0,0l0,0l-0.4,0.3l0,0l0,0L12.2,10
					c-0.1-0.1-0.1-0.2,0-0.3c0,0,0,0,0-0.1c0,0,0,0-0.1,0L11.4,10c0,0,0.1,0.1,0.3,0.3l0.5,0.6l0,0l0,0l-0.7,0.6l0.2,0
					c0.1-0.1,0.2-0.2,0.2-0.3l0.4-0.3l0,0l0,0l0.7,0.8l0,0l0,0l-0.9,0.8l0.2,0c0-0.1,0.1-0.2,0.2-0.3L15.1,10z M12.7,10.6L12.7,10.6
					L12.7,10.6l0.4-0.4l0,0l0,0l0.7,0.8l0,0l0,0l-0.4,0.3l0,0l0,0L12.7,10.6z"/>
				<path class="st1" d="M13.9,11.7l-0.6,0c0.1,0.6,0,1.2-0.2,2l0.1,0c0.4-0.7,0.7-1.3,0.7-1.8l0,0l0,0L13.9,11.7
					C14,11.8,14,11.8,13.9,11.7C13.9,11.7,13.9,11.7,13.9,11.7z"/>
				<path class="st1" d="M15.8,11.4c0-0.1-0.1-0.2-0.1-0.2c-0.2-0.2-0.4-0.3-0.7-0.2c-0.3,0-0.7,0.1-1.1,0.4l0,0.1
					c0.5-0.1,1,0,1.5,0.2c0.1,0.1,0.2,0.1,0.3,0C15.8,11.6,15.8,11.5,15.8,11.4z"/>
			</g>
			<g>
				<path class="st1" d="M17.5,7.4L17.5,7.4C17.5,7.4,17.5,7.4,17.5,7.4L17.5,7.4z"/>
				<polygon class="st1" points="19.2,9.3 19.2,9.3 19.2,9.3 				"/>
				<path class="st1" d="M21.5,7.5l-0.3-0.6l-0.6-1.3c0-0.1,0-0.1,0-0.2c0,0,0-0.1,0-0.1c0,0,0,0-0.1,0l-0.4-0.1c0,0-0.1,0-0.1,0
					c0,0,0,0,0,0.1l0,0v0L20,5.6l0,0l0,0l-0.4,0.2h0h0l-0.6,0C19,5.9,19.1,6,19.2,6.1l0.1,0.3l0,0l0,0l-0.3-0.1c0,0-0.1,0-0.1,0
					c0,0,0,0,0,0.1l-0.1,0.4l0,0l0,0l-0.1,0l0,0l0,0l-0.3-0.6l0,0l0,0c0.2-0.1,0.3-0.2,0.4-0.3c0,0,0.1-0.1,0.1-0.1c0,0,0.1,0,0.1,0
					c0,0,0.1,0,0.1,0c0,0,0,0,0-0.1c0,0,0,0,0,0l-0.6-0.3c-0.3,0.5-0.8,1-1.3,1.4l0,0c0.3-0.1,0.5-0.3,0.7-0.4l0,0l0,0l0.3,0.6l0,0
					l0,0l-0.8,0.4l0.2,0.1c0.1-0.1,0.2-0.2,0.3-0.2L18,7.1l0,0l0,0c0.1,0.6,0.1,1.3,0,2l0.1,0c0.2-0.4,0.4-0.9,0.4-1.3l0,0l0,0l0,0
					l0,0l0,0L19,8.8l0.2,0.5l0,0.1c0,0,0,0.1,0.1,0c0.1,0,0.1-0.1,0.2-0.2C19.7,9,19.7,9,19.7,9c0,0,0-0.1,0-0.1l-0.1-0.1l-0.3-0.6
					l-0.4-0.9l0,0l0,0l0,0l0,0l0,0c0,0,0.1,0,0.2,0.1c0.1,0.1,0.2,0.1,0.3,0.2c0.1,0.1,0.1,0.1,0.2,0.1c0,0,0.1,0,0.1-0.1
					c0-0.1,0-0.1,0-0.2l0,0l0,0l0,0l0,0l0,0L20,7.9l0.2,0.6c0,0,0,0.1,0.1,0.1c0,0,0,0,0.1,0c0,0,0.1-0.1,0.2-0.1
					c0.1-0.1,0.1-0.1,0.1-0.2c0,0,0-0.1,0-0.1l-0.2-0.4l0,0l0,0l0.4-0.2l0,0l0,0L21.1,8c0,0,0,0,0,0c0,0,0,0,0.1,0
					c0.1,0,0.1-0.1,0.2-0.2C21.5,7.7,21.6,7.6,21.5,7.5z M19.6,7.1L19.6,7.1L19.6,7.1L19.6,7.1c-0.2-0.1-0.4-0.1-0.8,0l0,0l0,0
					l-0.1-0.2l0,0l0,0l0.6-0.3l0,0l0,0L19.6,7.1L19.6,7.1L19.6,7.1z M20.9,7.5l-0.4,0.2l0,0l0,0l-0.8-1.8l0,0l0,0l0.4-0.2l0,0l0,0
					L20.9,7.5L20.9,7.5L20.9,7.5z"/>
				<polygon class="st1" points="18.9,6.3 18.9,6.3 18.9,6.3 				"/>
			</g>
			<g>
				<path class="st1" d="M28.2,6.1l-0.4-2.7v0l0,0l0.1-0.1c0,0,0,0,0-0.1c0,0,0,0,0-0.1l-0.4-0.2c0,0,0,0-0.1,0c0,0,0,0,0,0
					l-0.2,0.3l0,0l0,0L25,3.5l0,0l0,0l-0.6-0.2c0,0.2,0.1,0.3,0.1,0.5l0.4,2.8l0.1,0.6c0,0,0,0,0,0.1c0,0,0,0,0.1,0
					c0,0,0.1,0,0.2-0.1C25.4,7.1,25.4,7,25.4,7c0,0,0-0.1,0-0.1l0-0.3l0,0l0,0l2.3-0.3l0,0l0,0l0,0.1l0,0.3c0,0,0,0,0,0
					c0,0,0,0,0.1,0c0,0,0.1,0,0.2-0.1c0.1-0.1,0.2-0.1,0.2-0.2L28.2,6.1z M27.4,4L27.4,4l0,0.3l0,0l0,0l-0.5-0.2
					c0,0.3,0,0.5-0.1,0.6l0,0l0,0l0,0l0,0l0,0c0-0.1-0.1-0.3-0.1-0.7l0,0l0,0L27.4,4L27.4,4z M26.8,3.3l0.4-0.1l0,0l0,0l0.1,0.5l0,0
					l0,0l-0.1-0.1l0,0l0,0c0,0,0-0.1,0-0.1c0-0.1,0-0.1-0.1-0.1C27,3.4,26.9,3.4,26.8,3.3L26.8,3.3L26.8,3.3L26.8,3.3L26.8,3.3
					L26.8,3.3z M26.4,3.4L26.4,3.4L26.4,3.4L26.4,3.4l0.3-0.1l0,0l0,0l0,0c0.1,0,0.1,0.1,0.2,0.2c0,0.1,0.1,0.2,0.1,0.2l0,0l0,0
					L26.9,4l0,0h0l-0.2,0l0,0l0,0l0-0.3v0l0,0c0.1-0.1,0.1-0.1,0.1-0.1c0,0,0,0,0,0L26.4,3.4L26.4,3.4L26.4,3.4z M25,4.2l-0.1-0.6
					l0,0l0,0L26,3.4l0,0l0,0l0,0.2l0.1,0.4l0,0l0,0L25,4.2L25,4.2L25,4.2z M27.7,6.2l-2.3,0.3l0,0l0,0L25.3,6l0,0l0,0l0,0l0,0l0,0
					c0,0,0.1,0.1,0.1,0.2c0.1,0.1,0.1,0.1,0.1,0.2c0,0,0,0,0,0c0,0,0.1,0,0.1-0.1c0-0.1,0.1-0.1,0.2-0.2l0.6-0.5l0,0
					c-0.4,0.1-0.8,0.2-1.1,0.3l0,0l0,0L25,4.3l0,0l0,0l0.1,0.1c0.1-0.1,0.2-0.1,0.3-0.1l0.7-0.1l0,0l0,0l0.1,0.3l0,0.1l0,0L26,4.3
					c0,0,0,0,0,0c0,0,0,0,0,0v0l0,0l-0.1,0.2l0,0h0l-0.1,0l0,0l0,0l-0.4-0.1c0,0.1,0,0.2,0.1,0.3l0.1,0.4l0,0.4c0,0,0,0.1,0,0.1
					c0,0,0,0,0,0c0,0,0.1,0,0.2-0.1c0.1-0.1,0.1-0.1,0.1-0.1c0,0,0,0,0,0l0-0.1v0l0,0l0.1,0l0,0l0,0l0,0.1c0,0,0,0,0,0
					c0,0,0,0,0.1,0c0,0,0.1,0,0.2-0.1c0.1,0,0.1-0.1,0.1-0.2l0-0.2l-0.1-0.4v0l0,0l0-0.1l0,0l0,0c0.1,0.3,0.1,0.6,0.3,0.8l0,0l0,0
					c-0.2,0.3-0.4,0.6-0.8,0.9l0,0c0.4-0.1,0.7-0.4,0.9-0.6l0,0l0,0C26.9,5.9,27,6,27.1,6.1c0.1,0.1,0.2,0.1,0.3,0.1
					c0.1,0,0.1-0.1,0.1-0.1c0,0,0-0.1-0.1-0.2c0-0.1-0.1-0.2-0.1-0.3c0-0.1,0-0.3,0-0.5l0,0c-0.1,0.4-0.1,0.5-0.1,0.5
					c0,0,0,0-0.1,0.1c0,0-0.1,0-0.1,0c0,0,0,0-0.1-0.2l0,0l0,0c0.1-0.2,0.2-0.4,0.3-0.8l0,0l0,0c0,0,0.1-0.1,0.1-0.1l0,0l0,0
					L27.7,6.2L27.7,6.2L27.7,6.2z M25.9,5.2L25.9,5.2l-0.1,0l0,0l0,0l-0.1-0.5l0,0l0,0l0.1,0l0,0l0,0L25.9,5.2L25.9,5.2z"/>
				<g>
					<polygon class="st1" points="26,4.3 26,4.3 26,4.3 					"/>
					<polygon class="st1" points="25.2,4.4 25.2,4.4 25.2,4.4 					"/>
				</g>
				<polygon class="st1" points="26,4.3 26,4.3 26,4.3 				"/>
			</g>
			<g>
				<polygon class="st1" points="35.1,3.7 35.1,3.7 35.1,3.7 				"/>
				<path class="st1" d="M34.2,4.4L34.2,4.4L34.2,4.4l1.3,0.2c0,0,0,0,0.1,0c0,0,0,0,0,0c0,0,0,0,0-0.1L35.2,4c0,0,0,0,0,0
					c0,0,0,0-0.1,0l-0.3,0.3l0,0l0,0L34,4.2l0,0l0,0L34,3.7l0,0l0,0c0.1,0,0.3,0,0.5,0c0.2,0,0.4,0,0.4,0c0,0,0.1,0,0.1,0
					c0,0,0,0,0.1,0c0,0,0,0,0,0c0,0,0,0,0,0l-0.4-0.5c-0.5,0.1-1.4,0.2-2.5,0.3l0,0.1c0.3,0,0.8,0.1,1.3,0.1l0,0l0,0l-0.1,0.4l0,0
					l0,0l-1.7-0.2L31.8,4c0.1,0,0.2,0,0.4,0l0.6,0.1l0,0l0,0c-0.3,0.4-0.8,0.8-1.4,1.1l0,0.1c0.5-0.1,0.8-0.2,1-0.3l0,0l0,0l0,0.5
					l-0.1,0.8l-0.1,0.4c0,0,0,0,0,0c0,0,0,0,0.1,0c0.1,0,0.2,0,0.3,0c0.1,0,0.1-0.1,0.1-0.1l0-0.3v0l0,0l1,0.1l0,0l0,0l0,0.3
					c0,0,0,0,0.1,0.1c0.1,0,0.2,0,0.3,0c0.1,0,0.2-0.1,0.2-0.1l0-0.4l0.1-0.9c0,0,0-0.1,0.1-0.1c0,0,0.1,0,0.1,0l0,0l0,0
					c0.1,0.1,0.3,0.2,0.3,0.2c0.1-0.1,0.2-0.2,0.2-0.3c0.1,0,0.2-0.1,0.3,0c0,0,0,0,0.1,0l0-0.1C35.1,5.2,34.6,4.8,34.2,4.4z M34,6
					l-0.1,0.5l0,0l0,0l-1-0.1l0,0l0,0l0.1-0.5l0,0l0,0L34,6L34,6L34,6z M34.1,5.4L34,5.9l0,0l0,0l-1-0.1l0,0l0,0L33,5.3l0,0l0,0
					L34.1,5.4L34.1,5.4L34.1,5.4z M34.4,5.2L34.4,5.2L34.4,5.2L34.4,5.2c-0.1,0-0.1,0-0.1,0c0,0,0,0,0,0l0,0h0L34,5.3l0,0h0l-1-0.1
					h0l0,0L32.7,5l0,0l0,0c0.2-0.1,0.4-0.3,0.6-0.5l0,0l0,0l0,0l0,0l0,0l0,0.3l-0.1,0.5l0,0l0,0c0,0,0,0,0.1,0c0.1,0,0.2,0,0.3,0
					c0.2,0,0.2-0.1,0.2-0.1l0-0.4l0-0.3l0,0l0,0l0,0h0l0,0C34,4.7,34.2,4.9,34.4,5.2L34.4,5.2L34.4,5.2z"/>
			</g>
			<g>
				<g>
					<polygon class="st1" points="42.4,7.5 42.4,7.5 42.4,7.5 					"/>
					<path class="st1" d="M42.4,6.4C42.4,6.3,42.4,6.3,42.4,6.4c-0.1-0.1-0.1-0.1-0.1,0L42,6.5l0,0l0,0l-0.1,0l0,0l0,0L42.1,6
						c0,0,0,0,0.1-0.1c0.1,0,0.1,0,0.1,0s0,0-0.1-0.1l-0.5-0.4c0,0.1-0.1,0.3-0.1,0.3l-0.2,0.4l0,0l0,0l-0.3-0.1l0,0l0,0l0.2-0.4
						c0,0,0,0,0.1-0.1c0.1,0,0.1,0,0.1,0s0,0-0.1-0.1L41,5.1c0,0.1-0.1,0.3-0.1,0.3l-0.2,0.4l0,0l0,0l-0.4-0.2l0.1,0.2
						c0.1,0,0.2,0,0.3,0.1l0.1,0l0,0l0,0l-0.3,0.6l0,0l0,0l-0.5-0.2l0,0l0,0l0.3-0.4l0,0c-0.3,0.2-0.5,0.5-0.8,0.6
						c-0.3,0.2-0.4,0.3-0.5,0.3c-0.1,0-0.2,0-0.3-0.1c0,0-0.1,0-0.1-0.1l0,0.1c0.1,0.1,0.2,0.2,0.2,0.3c0,0.1,0,0.1,0,0.2
						c0,0.1-0.1,0.2-0.2,0.3c-0.1,0.1-0.1,0.2-0.2,0.2c0,0.1,0,0.2,0,0.3c0,0.1,0.1,0.2,0.2,0.3c0.1,0.1,0.2,0,0.3-0.2
						c0.1-0.1,0.1-0.3,0.1-0.4c0-0.1,0.1-0.2,0.1-0.3l0,0l0,0c0.3,0,0.6,0,0.8-0.1l0,0l0,0l-0.4,0.8c0,0.1,0,0.2,0,0.3
						c0,0.1,0.1,0.2,0.3,0.3C39.9,8.8,40,8.9,40.2,9c0.4,0.2,0.6,0.3,0.8,0.3c0.2,0,0.3-0.1,0.5-0.2c-0.1-0.1-0.2-0.3-0.2-0.4
						c0-0.1,0-0.2,0.1-0.3l0,0c0,0-0.1,0.1-0.1,0.2c-0.1,0.1-0.1,0.2-0.2,0.2c-0.1,0-0.1,0-0.2,0c-0.1,0-0.2-0.1-0.4-0.2
						c-0.2-0.1-0.3-0.2-0.4-0.2c0-0.1,0-0.1,0-0.2l0.1-0.3l0,0l0,0L40.7,8l0,0l0,0l-0.1,0.1c0,0,0,0,0,0c0,0,0,0,0.1,0
						c0.1,0,0.2,0.1,0.3,0c0.2,0,0.2,0,0.2-0.1L41.3,8l0,0l0,0c0.1,0.1,0.2,0.3,0.3,0.4c0.2-0.2,0.4-0.2,0.6-0.2l0,0
						c-0.5-0.3-0.7-0.7-0.8-1.1l0,0l0,0l0.9,0.4c0,0,0,0,0,0c0,0,0,0,0,0c0,0,0,0,0,0c0,0-0.2-0.4-0.2-0.4c0,0,0,0,0,0c0,0,0,0,0,0
						l0,0l0,0l-0.3,0.2l0,0l0,0l-0.2-0.1l0,0l0,0l0.3-0.5l0,0l0,0l0.6,0.3c0,0,0.1,0,0.1,0c0,0,0,0,0,0c0,0,0,0,0-0.1
						C42.5,6.7,42.4,6.4,42.4,6.4z M39.1,7.3L39.1,7.3L39.1,7.3c0.1-0.3,0.4-0.6,0.7-0.9l0,0l0,0l0,0.1c0.1,0,0.1,0,0.2,0.1l0.1,0.1
						l0,0l0,0C40,6.9,39.6,7.1,39.1,7.3z M40.9,7.5l-0.2,0.4l0,0l0,0l-0.5-0.2l0,0l0,0l0.2-0.4l0,0l0,0L40.9,7.5L40.9,7.5L40.9,7.5z
						 M41.2,7c0,0.1,0,0.2,0,0.4v0l0,0l-0.2,0l0,0l0,0l-0.4-0.2l0,0l0,0l-0.1-0.1l0,0l0,0c0,0,0.1-0.1,0.4-0.2l0,0l0,0L41.2,7
						L41.2,7L41.2,7z M41.4,6.3l-0.3,0.5l0,0l0,0l-0.3-0.1l0,0l0,0l0.3-0.6l0,0l0,0L41.4,6.3L41.4,6.3L41.4,6.3z"/>
					<path class="st1" d="M39.8,5.3c0,0.2,0,0.3,0.1,0.3c0.1,0,0.1,0,0.2,0c0.1,0,0.1-0.1,0.2-0.2c0.1-0.2-0.1-0.4-0.5-0.8l-0.1,0
						l0.1,0.2C39.8,5,39.8,5.1,39.8,5.3z"/>
					<path class="st1" d="M39.1,5.8c0,0.3,0,0.4,0,0.4c0,0,0,0.1,0.1,0.1c0.1,0,0.1,0,0.2,0c0.1-0.1,0.1-0.1,0.2-0.2
						c0-0.1,0-0.2,0-0.3c0-0.1-0.2-0.3-0.5-0.5l-0.1,0C39.1,5.4,39.1,5.6,39.1,5.8z"/>
				</g>
				<g>
					<path class="st1" d="M48.6,10.8C48.6,10.7,48.6,10.7,48.6,10.8C48.5,10.7,48.5,10.7,48.6,10.8L48.6,10.8L48.6,10.8l-0.4,0l0,0
						l0,0L48,10.6l0,0l0,0l0.3-0.4l0,0l0,0l0.2,0c0,0,0,0,0,0c0,0,0,0,0-0.1l-0.4-0.6C48,9.7,47.8,10,47.8,10l-0.2,0.3l0,0l0,0
						L47,9.8l0,0.2c0.1,0,0.2,0.1,0.2,0.1l0.3,0.2l0,0l0,0l-0.4,0.5l0,0l0,0l-0.6-0.5l0,0.2c0.1,0,0.2,0.1,0.3,0.2l0.6,0.5l0,0l0,0
						l-0.2,0.3L47,11.6l0,0l0,0l-1-0.8l0,0.2c0.1,0,0.2,0.1,0.2,0.2l0.7,0.6l0,0l0,0l-0.7,0.8c0,0,0,0-0.1,0c0,0-0.1,0-0.1-0.1
						c-0.1-0.1-0.2-0.2-0.3-0.4l-0.1,0.1c0.1,0.1,0.1,0.2,0.1,0.3c0,0.1,0.1,0.2,0.1,0.2c0,0-0.1,0.1-0.1,0.3c0.1,0,0.3,0.1,0.3,0.1
						c0,0,0.1,0,0.2,0c0.1,0,0.2,0,0.3-0.1l0.8-0.9l0,0l0,0l0.5,0.5c0,0,0,0,0,0s0,0,0,0c0,0,0,0,0,0c0,0,0-0.5,0-0.5c0,0,0,0,0-0.1
						c0,0,0,0-0.1,0L47.4,12l0,0l0,0L47.3,12l0,0l0,0l0.1-0.2l0,0l0,0c0.1,0,0.2,0,0.2,0c0,0,0,0,0,0l-0.4-0.5l0,0l0,0l0,0l0,0l0,0
						l0.9,0.8c0,0,0,0,0,0c0,0,0,0,0,0c0,0,0,0,0,0c0,0-0.1-0.5-0.1-0.5c0,0,0,0,0,0c0,0,0,0-0.1,0l-0.4,0.1l0,0l0,0l-0.4-0.3l0,0
						l0,0l0.4-0.5l0,0l0,0l0.7,0.6c0,0,0,0,0,0c0,0,0,0,0,0C48.6,11.2,48.6,10.8,48.6,10.8z"/>
					<path class="st1" d="M45.9,10.6L45.9,10.6l0.6,0.1l0-0.1l-0.4-0.2l0,0l0,0l0.3-0.4l0,0l0,0l0.4,0.3c0,0,0,0,0.1,0c0,0,0,0,0,0
						l0-0.4c0,0,0,0,0,0c0,0,0,0-0.1,0l0,0l0,0L46.6,10l0,0l0,0l0,0l0,0l0,0l0.6-0.6l0,0l0,0l0.1,0c0,0,0,0,0.1,0c0,0,0,0,0-0.1
						L47,8.6c-0.1,0.1-0.2,0.3-0.2,0.3l-0.1,0.2l0,0l0,0l-0.2-0.4c-0.4,0.4-0.8,0.8-1.4,1.1l0,0.1c0.3,0,0.6-0.1,1-0.3l0,0l0,0
						l0.1,0.1l0,0l0,0l-0.5,0.6l0,0l0,0L44.8,10c0,0.1-0.2,0.5-0.2,0.5c0,0,0,0.1,0,0.1c0,0,0,0,0.1,0c0.1,0,0.1,0,0.2,0l0.4,0l0,0
						l0,0l-0.5,0.6l-0.3,0.4c0,0,0,0.1,0,0.1c0,0,0,0,0,0.1c0,0,0.1,0.1,0.3,0.1c0.1,0,0.2,0,0.3,0l0.3-0.4L45.9,10.6L45.9,10.6z
						 M46,9.5L46,9.5L46,9.5c0,0,0.1-0.1,0.3-0.3l0,0l0,0l0.1,0l0,0l0,0l-0.3,0.3l0,0l0,0L46,9.5z"/>
					<path class="st1" d="M45.8,12c0.1,0.1,0.1,0.1,0.2,0.1c0.1,0,0.2-0.1,0.2-0.1c0.1-0.1,0.1-0.2,0.1-0.3c0-0.1-0.1-0.3-0.2-0.5
						l-0.1,0c0,0.2-0.1,0.3-0.2,0.5C45.8,11.8,45.8,11.9,45.8,12z"/>
				</g>
				<g>
					<path class="st1" d="M53.6,16.3c-0.1,0.1-0.2,0.2-0.3,0.3l-2.4,1.5c-0.1,0-0.1,0-0.2,0c0-0.1-0.1-0.2-0.2-0.5l-0.1,0
						c0,0.2,0.1,0.3,0.1,0.4c0,0.1-0.1,0.2-0.3,0.3c0.3,0.3,0.6,0.4,0.9,0.2l2.5-1.6c0.1,0,0.1,0,0.2,0l0,0c0,0,0,0,0.1,0
						c0,0,0,0,0,0L53.6,16.3z"/>
					<polygon class="st1" points="52.7,15.8 52.7,15.8 52.7,15.8 					"/>
					<path class="st1" d="M51,16.7L51,16.7L51,16.7l0.2,0c0,0,0,0,0.1,0c0,0,0,0,0,0l0.1-0.4c0,0,0,0,0-0.1c0,0,0,0-0.1,0l-0.3-0.1
						l0,0l0,0l-0.2-0.3l0,0l0,0l0.2-0.1l0,0l0,0l0.1,0.1c0,0,0,0,0.1,0c0,0,0,0,0-0.1l-0.1-0.5l0,0l0,0l0.1,0l0,0l0,0l0.4,0.6l0,0
						l0,0l-0.2,0.1c0,0,0,0,0,0c0,0,0,0,0,0c0,0,0.1,0.1,0.2,0.2c0.1,0.1,0.2,0.1,0.2,0.1c0,0,0,0,0.1,0l0,0v0l0.3-0.2l0.4-0.2
						c0.1-0.1,0.2-0.1,0.3,0c0,0,0,0,0.1,0c0,0,0,0,0,0c0,0,0-0.5,0-0.5c0,0,0,0,0-0.1c0,0,0,0-0.1,0l-0.3-0.1l0,0l0,0l-0.3-0.4v0v0
						L52,14c-0.1,0.1-0.2,0.1-0.4,0.2L51,14.6l-0.4,0.3c0,0,0,0,0,0c0,0,0,0,0,0c0,0.1,0.1,0.1,0.2,0.2l0,0l0,0l-0.3,0.2
						c-0.3,0.2-0.6,0.3-0.9,0.3c-0.3,0.1-0.7,0.1-1,0l0,0.1c0.7,0.3,1.4,0.3,2.1,0.1l0,0l0,0l0.2,0.3l0,0l0,0
						c-0.2,0.1-0.4,0.2-0.7,0.3c-0.4,0.2-0.4,0.2-0.4,0.2c0,0-0.1,0-0.1-0.1c0-0.1-0.1-0.2-0.2-0.5l-0.1,0c0,0.2,0,0.3,0,0.4
						c0,0.1-0.1,0.1-0.2,0.2c0.1,0.1,0.1,0.2,0.2,0.2c0.1,0.1,0.1,0.1,0.2,0.2c0.1,0,0.2,0.1,0.2,0.1c0.1,0,0.2-0.1,0.5-0.2
						C50.5,17,50.8,16.9,51,16.7z M51.3,15.1l0.7-0.4l0,0l0,0l0.4,0.6l0,0l0,0l-0.7,0.4l0,0l0,0L51.3,15.1L51.3,15.1L51.3,15.1z"/>
					<polygon class="st1" points="52.7,15.8 52.7,15.8 52.7,15.8 					"/>
					<path class="st1" d="M52.9,16.6C52.9,16.6,52.9,16.5,52.9,16.6l-0.1-0.7c0,0-0.1,0.1-0.2,0.1c-0.1,0.1-0.1,0.1-0.2,0.1L51.1,17
						l-0.5,0.3c0,0,0,0,0,0c0,0,0,0,0,0.1c0,0,0,0,0.2,0.2c0.1,0.1,0.2,0.1,0.3,0.1l0.4-0.3l1.2-0.7C52.7,16.5,52.8,16.5,52.9,16.6
						L52.9,16.6C52.9,16.6,52.9,16.6,52.9,16.6z"/>
				</g>
			</g>
			<g>
				<path class="st1" d="M54,22.3c0.1,0,0.2,0,0.2,0.1c0,0,0,0,0.1,0c0,0,0,0,0,0l0-0.2l0,0l0,0c0.2,0.1,0.2,0.1,0.3,0.1h0l0,0
					c0.1,0.1,0.2,0.1,0.2,0.2c0,0,0,0,0,0c0,0,0,0,0-0.1l0.2-0.7l0,0l0,0c0.3,0.1,0.4,0.3,0.5,0.4c0,0,0,0,0,0c0,0,0,0,0-0.1
					l0.2-0.6c-0.7-0.1-1.2-0.3-1.6-0.5l0,0.1c0.3,0.3,0.5,0.5,0.8,0.7l0,0l0,0l0,0l0,0h0c-0.7,0-1.4-0.2-2-0.5L53,21.2
					c0.3,0.2,0.5,0.4,0.7,0.5l0,0l0,0l-1.1,0.3l-0.5,0.1c0,0,0,0,0,0c0,0,0,0.1,0,0.1c0,0.1,0.1,0.2,0.1,0.3
					c0.1,0.1,0.1,0.1,0.2,0.1l0.5-0.2L54,22.3z"/>
				<path class="st1" d="M56.4,23.6C56.4,23.6,56.4,23.6,56.4,23.6L56,23.4l0,0l0,0l-0.4-1.2l-0.1,0.2c0.1,0.1,0.1,0.2,0.1,0.3
					l0.4,1.4c0,0.1,0,0.1,0,0.1c0,0,0,0,0,0c0,0,0,0,0-0.1L56.4,23.6C56.4,23.7,56.4,23.7,56.4,23.6z"/>
				<path class="st1" d="M55.5,24.2L55.1,24l0,0l0,0l-0.5-1.7l-0.1,0.1c0.1,0.1,0.1,0.2,0.2,0.3l0.2,0.7l0,0l0,0l-1.6,0.5
					c-0.1,0-0.1,0-0.1,0c0,0-0.1,0-0.1-0.1c0,0,0-0.2-0.1-0.6l-0.1,0c0,0.4-0.2,0.6-0.4,0.7c0.2,0.4,0.4,0.5,0.7,0.5L55,24l0,0l0,0
					l0.2,0.7c0,0,0,0,0,0c0,0,0,0,0,0c0,0,0,0,0,0l0.2-0.4C55.6,24.3,55.6,24.3,55.5,24.2C55.6,24.2,55.5,24.2,55.5,24.2z"/>
			</g>
			<g>
				<polygon class="st1" points="57.1,31.1 57.1,31.1 57.1,31.1 				"/>
				<path class="st1" d="M55.7,30.1L55.7,30.1L55.7,30.1l0.2-0.2c0,0,0,0,0,0c0,0,0,0,0,0l-0.2-0.2l-0.1,0h0.1l0.9,0h0v0v0.5
					c0,0,0,0,0,0c0,0,0,0,0,0c0,0,0,0,0,0c0,0,0.4-0.4,0.4-0.4c0,0,0,0,0,0c0,0,0,0,0,0l-0.4-0.3l0,0v0l0-1.3l-0.1,0.1
					c0,0.1,0.1,0.2,0.1,0.3v0.6v0h0l-2.1,0h0l0,0l0-0.1l0,0h0l1.2,0c0.1,0,0.1,0,0.1,0.1c0,0,0,0,0.1,0c0,0,0,0,0,0l0.2-0.6
					c-0.1,0-0.4,0-0.4,0l-1.3,0h0l0,0l-0.1-0.4c-0.1,0-0.5,0.2-0.5,0.2c-0.1,0-0.1,0.1-0.1,0.1c0,0,0,0,0.1,0.1c0,0,0.1,0.1,0.1,0.1
					c0,0,0,0.1,0.1,0.2c0.1,0.1,0.1,0.3,0.2,0.6l0.4,1.1l0.1,0l-0.2-0.7l0,0h0h1h0v0v0.4v0l0,0c-0.2-0.1-0.5-0.2-0.7-0.3l0,0
					c0.2,0.2,0.4,0.4,0.7,0.5l0,0v0v0v0l0,0c-0.4,0-0.7,0.1-0.9,0.2l0,0l0,0c-0.5-0.4-0.9-0.9-1.1-1.5l0,0c0.2,0.8,0.5,1.4,0.8,1.7
					l0,0l0,0c-0.2,0.2-0.5,0.4-0.7,0.6c0.2,0.2,0.4,0.4,0.4,0.7l0.1,0c0.2-0.5,0.4-0.9,0.6-1.1l0,0l0,0c0.3,0.2,0.7,0.3,1.2,0.4h0h0
					c0.1,0,0.1,0.1,0.2,0.2v0v0c0,0,0,0,0,0c0,0,0,0,0,0l0.1-0.2l0,0h0h0h0v0v0.5c0,0,0,0,0,0c0,0,0,0,0,0l0.4-0.4c0,0,0,0,0-0.1
					c0,0,0,0,0,0l0,0l0,0l-0.4-0.3l0,0v0v-0.5v0l0,0c0,0,0.1,0,0.3,0.1c0.2,0.1,0.3,0.1,0.4,0.1c0,0,0.1,0,0.1,0.1
					c0,0,0,0.1,0.1,0.1c0,0,0,0,0,0l0.2-0.7C56.8,30.4,56.3,30.3,55.7,30.1z M56.1,31.1c-0.5,0-0.9-0.1-1.2-0.1l0,0l0,0
					c0.1-0.1,0.4-0.2,0.7-0.3l0,0l0,0c0.2,0.1,0.3,0.2,0.4,0.2l0,0v0L56.1,31.1L56.1,31.1L56.1,31.1z"/>
			</g>
			<g>
				<polygon class="st1" points="55.2,39.4 55.2,39.4 55.2,39.4 				"/>
				<polygon class="st1" points="52.2,38.7 52.2,38.7 52.2,38.7 				"/>
				<path class="st1" d="M56,36.1l-2.5-0.7c-0.1,0-0.2-0.1-0.2-0.2c0,0,0,0,0,0c0,0,0,0,0,0l0,0l0,0l-0.4,0.3c0,0,0,0,0,0.1
					c0,0,0,0.1,0,0.1v0l0,0l0.1,0.3l0,0v0l-0.8,2.9c0,0,0,0,0,0c0,0,0,0,0,0c0,0,0.4-0.3,0.4-0.3c0,0,0,0,0,0c0,0,0,0,0,0l-0.2-0.3
					l0,0v0l0.7-2.3l0,0l0,0l2.9,0.9l0,0l0,0l-0.8,2.8c0,0,0,0,0,0c0,0,0,0,0,0c0,0,0.5-0.3,0.5-0.3c0,0,0,0,0,0c0,0,0,0,0-0.1
					l-0.3-0.4v0v0l0.6-1.9v0l0,0l0.4-0.5C56.4,36.2,56,36.1,56,36.1z"/>
				<polygon class="st1" points="55,38.8 55,38.8 55,38.8 				"/>
				<path class="st1" d="M55.4,38.5C55.4,38.5,55.4,38.5,55.4,38.5l-0.2-0.4l0,0l0,0l0.2-0.6v0l0,0l0.4-0.5c-0.1,0-0.4-0.1-0.4-0.1
					L55,36.8l-0.4-0.1c0,0,0,0,0,0c0,0,0,0,0,0c0,0,0,0.1,0,0.3c0,0.1,0,0.2,0.1,0.2l0.1,0l0,0l0,0L54.5,38l0,0l0,0l-0.2,0
					c0,0,0,0,0,0c0,0,0,0,0,0c0,0,0,0.1,0,0.2c0,0.2,0,0.2,0,0.2c0,0,0,0,0.1,0c0,0,0.2,0,0.2,0l0.3,0.1l0,0l0,0l0.1,0.1
					c0,0,0,0,0,0c0,0,0,0,0,0C55,38.8,55.3,38.6,55.4,38.5C55.3,38.6,55.4,38.5,55.4,38.5z M55.1,38.2L55.1,38.2l-0.5-0.1l0,0l0,0
					l0.2-0.7l0,0l0,0l0.5,0.1l0,0l0,0L55.1,38.2L55.1,38.2z"/>
				<polygon class="st1" points="53.8,38.9 53.8,38.9 53.8,38.9 				"/>
				<path class="st1" d="M54,38.3L54,38.3L54,38.3l0-0.2v0l0,0l0.4-0.4l-0.2,0l0,0l0,0l0.3-0.3c0,0,0,0,0,0c0,0,0,0,0,0l0,0v0
					l-0.2-0.2l0,0l0,0l0.1-0.2l0,0l0,0l0.4-0.4c-0.1,0-0.4-0.1-0.4-0.1l-0.7-0.2L53.2,36c0,0,0,0,0,0c0,0,0,0,0,0c0,0,0,0.1,0,0.3
					c0,0.1,0,0.2,0.1,0.2l0.3,0.1l0,0l0,0l-0.1,0.2l0,0l0,0l-0.1,0L53,36.7c0,0,0,0,0,0c0,0,0,0,0,0c0,0,0,0.1,0,0.2
					c0,0.2,0,0.2,0,0.2c0,0,0,0,0,0l0,0l0,0l0.4,0.1l0.6,0.2l0,0l0,0l0.1,0.2l0,0l0,0l-0.7-0.2l-0.4-0.2c0,0,0,0,0,0c0,0,0,0,0,0
					c0,0,0,0.1,0,0.2c0,0.1,0,0.1,0,0.2c0,0,0,0.1,0.1,0.1l0.2,0.1l0,0l0,0L53,38l0,0l0,0l-0.1,0c0,0-0.1,0-0.1,0c0,0,0,0.1,0,0.2
					c0,0.1,0,0.2,0,0.2c0,0,0,0,0.1,0c0,0,0.3,0.1,0.3,0.1l0.5,0.1l0,0l0,0l0,0.1c0,0,0,0,0,0c0,0,0,0,0,0c0,0,0.4-0.3,0.4-0.3
					c0,0,0,0,0,0c0,0,0,0,0,0L54,38.3z M53.5,36.8L53.5,36.8L53.5,36.8l0-0.2l0,0l0,0l0.7,0.2l0,0l0,0L54.2,37l0,0l0,0L53.5,36.8z
					 M53.9,38.1l-0.1,0.2l0,0l0,0l-0.7-0.2l0,0l0,0l0.1-0.2l0,0l0,0L53.9,38.1L53.9,38.1L53.9,38.1z"/>
			</g>
		</g>
	</g>
	<g>
		<path class="st2" d="M75.8,34.4v3.5h1.3v1.8h-1.3v3.2c0.6-0.3,1.1-0.6,1.7-0.9v2c-1.6,1-3.4,2-5.1,2.7l-0.6-1.9
			c0.6-0.3,1.3-0.6,2.2-1v-4.2h-1.4v-1.8h1.4v-3.5h-1.6v-1.8h5.2v1.8H75.8z M88.2,48.6c-1.4-0.4-2.7-1.2-3.6-2.2
			c-0.8-0.9-1.4-2.1-1.6-3.3h-0.4c-0.3,0.5-0.7,0.9-1.1,1.3v1.8c0.6-0.2,1.5-0.4,2.1-0.7l0.1,1.8c-1.3,0.5-2.6,1-3.9,1.3l-0.9-1.6
			c0.2-0.1,0.6-0.4,0.6-0.7v-0.4c-0.7,0.4-1.4,0.8-2.1,1l-1.1-1.7c1.3-0.3,3-1,3.9-2.1h-1.5v-3.8h8.9v3.8h-2.8
			c0.2,0.6,0.4,1.1,0.7,1.5c0.5-0.4,1-0.9,1.5-1.4l1.5,1c-0.5,0.7-1.1,1.3-1.7,1.7c0.8,0.5,1.7,0.9,2.7,1.1L88.2,48.6z M77.4,38.8
			v-1.7h11.5v1.7H77.4z M78,36.5V32h10.2v4.5H78z M80.8,33.6h-1v1.3h1V33.6z M85.6,40.9h-5.1v0.6h5.1V40.9z M83.6,33.6h-1v1.3h1
			V33.6z M86.3,33.6h-1v1.3h1V33.6z"/>
		<path class="st2" d="M91.9,46.8L91.2,45c0.6-0.2,1.4-0.6,2.1-0.9v-5.8h-1.7v-2h1.7V32h1.9v4.3h1.2v2h-1.2v4.9
			c0.6-0.3,1.1-0.5,1.7-0.8v2.1C95.3,45.3,93.6,46.2,91.9,46.8z M108.1,47.1c-0.3,0.7-0.9,1.1-2,1.1h-1.6c-0.7,0-1.2-0.1-1.5-0.4
			c-0.3-0.3-0.4-0.8-0.4-1.5v-1.8h-0.9c-0.2,1.2-0.7,2.1-1.5,2.8C99.5,48,98.4,48.5,97,49l-1.2-1.6c1.2-0.3,2.2-0.7,2.9-1.3
			c0.6-0.4,0.9-1,1.1-1.7h-2.1v-5.9h9.2v5.9h-2.4v1.7c0,0.2,0.1,0.3,0.3,0.3h1c0.2,0,0.3-0.1,0.4-0.3c0.1-0.4,0.2-1,0.2-1.4l1.9,0.7
			C108.4,46.1,108.3,46.6,108.1,47.1z M96.9,38v-1.7h2.4c-0.2-0.3-0.4-0.6-0.7-0.8l1.1-0.6h-2.1v-1.7h3.5c-0.2-0.4-0.5-0.7-0.8-1
			l2-0.8c0.5,0.5,0.8,1.1,1.2,1.8h4v1.7h-2.5l1.1,0.6c-0.2,0.3-0.3,0.6-0.5,0.8h2.6V38H96.9z M105,40.2h-5.3v0.6h5.3V40.2z
			 M105,42.2h-5.3v0.6h5.3V42.2z M100.6,34.8c0.3,0.4,0.7,0.9,1,1.5h1.6c0.4-0.5,0.7-0.9,1-1.5H100.6z"/>
		<path class="st2" d="M126.8,48.7c-1.9-0.5-4-1.6-5.8-3.1c-1.7,1.4-3.6,2.4-5.4,3.1l-1.2-1.6c1.8-0.6,3.6-1.7,5.2-2.9
			c-1.3-1.4-2.5-3-3.3-4.8c-0.2,3.5-1.6,6.5-3.9,9.2l-1.7-1.2c1.2-1.3,2.1-2.7,2.8-4.2c0.6-1.3,0.9-2.7,0.9-4.2V34h-2.5V32h12.7v2
			c-0.5,0.9-1.2,2-2,3h3.3c-0.2,2.9-1.6,5.4-3.4,7.3c1.8,1.4,3.7,2.4,5.6,2.7L126.8,48.7z M119.7,38.9v-1.8c0.9-0.9,1.8-2.2,2.3-3.1
			h-5.7v0.5c0.9,3.4,2.6,6.3,4.8,8.5c1.2-1.2,2.1-2.6,2.4-4H119.7z"/>
		<path class="st2" d="M130.4,48.1v-1.9h7.4v-3.8h-5v-1.9h5v-3.3h-3.5c-0.6,1.4-1.3,2.6-2.5,4.1l-1.8-1.1c2-2.3,2.8-4.1,3.3-7.1
			l2,0.6c-0.1,0.6-0.3,1.1-0.4,1.7h2.8v-3.7h2v3.7h6.3v1.9h-6.3v3.3h5.5v1.9h-5.5v3.8h7.4v1.9H130.4z"/>
		<path class="st2" d="M151,48.2l-1.4-1.1c1.2-1,2-1.9,2.7-3.3l1.6,1C153,46.3,152,47.5,151,48.2z M157.4,36.2
			c-0.1-0.3-0.3-0.5-0.5-0.8l-6.6,0.5l-0.5-1.2c1.2-0.8,2.6-2.3,3.5-3.5l1.6,0.9c-0.6,0.8-1.3,1.6-2.1,2.2l3-0.2
			c-0.3-0.3-0.6-0.6-0.9-0.9l1.3-1.1c1,0.9,1.9,2,2.5,3.2L157.4,36.2z M157.9,43.1c-0.2,0.3-0.6,0.5-1.2,0.5h-1.9l-0.5-1.5
			c0.5,0.1,1,0.1,1.5,0.1c0.3,0,0.5-0.2,0.5-0.5v-0.2h-4.1v2.2h-1.9v-7.2h7.8V42C158.2,42.5,158.1,42.8,157.9,43.1z M156.4,37.6
			h-4.1v0.6h4.1V37.6z M156.4,39.5h-4.1v0.6h4.1V39.5z M162.5,46.9c-0.2,0.5-0.4,0.8-0.8,1c-0.3,0.2-0.7,0.3-1.2,0.3h-4.3
			c-0.6,0-1.1-0.2-1.4-0.5c-0.3-0.3-0.5-0.8-0.5-1.3v-2.4h1.9V46c0,0.4,0.3,0.5,0.5,0.5h3.1c0.5,0,0.8-0.3,0.9-0.6
			c0.1-0.4,0.2-0.8,0.2-1.3l1.8,0.7C162.7,45.9,162.6,46.5,162.5,46.9z M158.5,46.2c-0.4-0.8-0.8-1.4-1.3-2l1.5-1.1
			c0.6,0.7,1,1.2,1.4,2.1L158.5,46.2z M166.6,36.2c-0.1,0.4-0.3,0.7-0.6,0.9c-0.3,0.3-0.8,0.4-1.4,0.4h-3.6c-0.7,0-1.2-0.1-1.5-0.4
			c-0.3-0.3-0.5-0.8-0.5-1.5v-4.2h1.9v2c1.3-0.4,2.7-1.1,3.8-1.9l1,1.4c-1.8,1-3.1,1.6-4.9,2.1v0.4c0,0.3,0.2,0.5,0.5,0.5h2.6
			c0.3,0,0.6-0.2,0.7-0.5c0.1-0.4,0.1-0.8,0.1-1.2l1.9,0.6C166.8,35.3,166.7,35.7,166.6,36.2z M166.6,42.1c-0.1,0.4-0.3,0.7-0.6,0.9
			c-0.3,0.3-0.8,0.4-1.4,0.4h-3.6c-0.7,0-1.2-0.1-1.5-0.4c-0.3-0.3-0.5-0.8-0.5-1.5V38h1.9v1.5c1.2-0.4,2.6-1,3.8-1.7l1.1,1.4
			c-1.7,0.9-3.1,1.4-4.9,1.9v0.2c0,0.3,0.2,0.5,0.5,0.5h2.6c0.3,0,0.6-0.2,0.7-0.6c0.1-0.4,0.1-0.8,0.2-1.2l2,0.6
			C166.9,41.2,166.7,41.6,166.6,42.1z M165.2,48.2c-0.6-1.5-1.1-2.3-2.1-3.5l1.6-1.1c1,1.2,1.6,2.1,2.3,3.5L165.2,48.2z"/>
		<path class="st2" d="M184.9,46.1c-0.1,0.7-0.3,1.3-0.6,1.7c-0.4,0.5-1,0.8-1.9,0.8c-0.7,0-1.6,0-2.2-0.1l-0.5-1.9
			c0.9,0.2,1.8,0.2,2.5,0.2c0.5,0,0.8-0.4,0.8-0.8c0.2-1.8,0.4-4.4,0.4-6.1h-10.6v0.6c0,1.5-0.1,2.9-0.3,4.2
			c-0.3,1.4-0.8,2.8-1.7,4.2l-1.7-1.2c0.6-1,1.1-2.1,1.4-3.3c0.3-1.1,0.4-2.4,0.4-3.9v-8.5h13.3v5h-11.4V38h12.6
			C185.3,40.7,185.1,43.9,184.9,46.1z M182.3,33.7h-9.5v1.5h9.5V33.7z M179.6,46.2v-0.5h-3.5v1h-1.9v-5.9h7.4v5.4H179.6z
			 M179.6,42.5h-3.5v1.3h3.5V42.5z"/>
	</g>
	<g>
		<path class="st2" d="M72.6,20v-6H77l0-2.5h1.1l0,2.5l4.4,0v6h-1.1V19h-3.3l0,4.6H77l0-4.6h-3.3l0,1H72.6z M77,15h-3.3V18H77L77,15
			z M81.4,15h-3.3V18h3.3L81.4,15z"/>
		<path class="st2" d="M90.7,21.6l-4.2,0v-0.9h4.2v-0.9h-5.5v-0.9l5.5,0l0-3.2h-4.6v-1h10.3v1h-4.6l0,3.1l5.5,0l0,0.9h-5.5l0,0.9
			h4.2l0,0.9l-4.2,0l0,2.2l-1,0L90.7,21.6z M88.3,13.7l-2.7,0v-0.9h2.7v-1.4h1v1.4h1.8l0,0.9h-1.8v0.8h-1L88.3,13.7z M88.8,15.8v0.9
			h1.7l0,0.9l-1.6,0l0,1h-1v-1l-1.9,0v-0.9h1.9v-0.9L88.8,15.8z M93.2,14.6l0-0.8h-1.7v-0.9h1.7v-1.4h1v1.4l2.8,0v0.9h-2.8v0.8H93.2
			z M96.6,17.7h-1.9v1l-1,0v-1.1h-1.6v-0.9l1.6,0l0-0.9l1,0v0.8h1.9L96.6,17.7z"/>
		<path class="st2" d="M105.5,11.8c0,1.5-0.1,2.9-0.2,4.3c0,0.3,0.1,0.4,0.2,0.6c1.1,2.7,2.5,4.6,5.4,5.8l-0.8,0.9
			c-2.5-1.3-4-2.8-5.2-5.5c-0.5,1.6-2.4,4-5,5.4L99,22.5c0.9-0.6,1.7-1.1,2.5-1.8c0.9-0.8,1.5-1.5,2.2-3c0.8-1.6,0.7-4,0.7-5.9
			H105.5z"/>
		<path class="st2" d="M112.9,22.8c0.6-0.3,0.8-0.7,0.8-1.1V12h9.2v3.7h-4.1c0,0.5,0.1,1.2,0.2,1.7l4.9,0v1h-4.6
			c0.4,1.6,2.2,3.4,3.7,3.8c0.1,0,0.2-0.1,0.2-0.3c0.1-0.5,0.1-0.9,0.1-1.8l1.1,0.5c0,0.6-0.1,1.1-0.2,1.6c-0.1,0.5-0.1,0.9-0.6,1.1
			c-0.6,0.3-1.2-0.1-1.7-0.3c-1.8-0.9-3.3-2.7-3.7-4.6l-3.4,0v3.5l3.5-1.2v1.1c-1.3,0.4-3.3,1.2-4.5,1.7L112.9,22.8z M114.8,15.8
			l0,1.7h3.1c-0.1-0.5-0.1-1.2-0.1-1.7L114.8,15.8z M114.8,13.1v1.7h7V13L114.8,13.1z"/>
		<path class="st2" d="M131.2,20.2c-1.2,1.4-2.6,2.6-4.3,3.5l-0.6-0.9c1.2-0.6,3.1-2.2,4-3.3L131.2,20.2z M134.9,11.4V14h2v1l-2,0
			v3.1l2.8,0l0,1h-11.1v-1l2.8,0l0-3.1l-2,0v-1l2,0v-2.6h1.1V14l3.4,0v-2.6H134.9z M133.8,15.1l-3.4,0l0,3.1h3.4V15.1z M137.1,23.5
			c-1-1.3-2.6-2.5-4-3.3l0.7-0.8c1.5,0.9,2.9,1.9,4.1,3.4L137.1,23.5z"/>
		<path class="st2" d="M145.9,20.1c-0.4-1-1-1.8-1.7-2.3v5.8h-1v-5.3c-0.4,0.8-1.4,2-2.5,3.1l-0.9-0.7c1.6-1.3,2.9-2.9,3.4-4.5h-2.6
			v-1l2.6,0v-1.7c-0.7,0.1-1.5,0.3-2.4,0.3l-0.4-0.9c2-0.1,3.8-0.4,5.4-1.2l0.6,0.8c-0.5,0.3-1.6,0.7-2.1,0.9v2l2.3,0l0,1l-2.3,0v1
			l0.4-0.3c0.8,0.5,1.8,1.7,2.2,2.6L145.9,20.1z M151.1,22.8l-1,0v-1.3h-2.2v1.4h-1l0-10.2h4.2V22.8z M147.9,20.5h2.2v-6.8h-2.2
			V20.5z"/>
		<path class="st2" d="M154.1,23.6V12.1h10.6l0,11.4l-1.1,0l0-0.6h-8.5l0,0.7H154.1z M163.6,13.1h-8.5v8.9h8.5L163.6,13.1z
			 M159.6,19.1l0,0.9l-4,0.9l-0.4-0.9L159.6,19.1z M163.4,19.3c-0.1,0.9-0.2,1.5-0.6,2.2c-0.1,0.2-0.4,0.4-0.6,0.3
			c-0.5-0.1-0.9-0.8-1.4-1.5c0,0-0.9,1.1-1.7,1.5l-0.8-0.6c1-0.8,1.7-1.3,2.2-2c-0.1-0.4-0.3-0.9-0.4-1.5c-0.1-1-0.2-1.7-0.3-2.4
			h-4.4v-0.9l4.3,0l0-1.2l1,0v1.3l0.9,0c-0.1-0.1-0.4-0.5-0.8-0.8l0.9-0.5c0.4,0.4,0.7,0.9,1,1.3l0.5,0v1h-2.6
			c0.1,1.2,0.2,1.9,0.4,2.9c0.5-0.9,0.8-1.6,1.1-2.6l0.9,0.5c-0.4,1-1.1,2.4-1.6,3.2c0.2,0.4,0.3,0.7,0.5,1c0.1,0.1,0.2,0.2,0.2,0.1
			c0.2-0.4,0.2-1,0.2-1.7L163.4,19.3z M155.7,16l3.7,0v2.8l-3.7,0V16z M158.4,17.9V17l-1.7,0l0,0.9H158.4z"/>
		<path class="st2" d="M177.8,12.4c-1.5,0.5-3,0.7-4.3,0.8v1.1l4.9,0v1h-4.9l0,2.4h3.1v5.8h-1l0-0.7l-5.2,0v0.7h-1v-5.4
			c-0.4,0.2-1,0.5-1.7,0.7l-0.8-0.9c1.8-0.6,3.4-1.4,4.4-2.7h-3.7v-1h4.8l0-1c-1.2,0.1-2.5,0.2-3.9,0.2l-0.7-1
			c3.3,0,6.8-0.3,9.2-0.9L177.8,12.4z M172.4,15.5c-0.5,0.8-1.6,1.7-2.4,2.2l2.4,0V15.5z M175.5,18.7l-5.2,0l0,1l5.2,0V18.7z
			 M175.5,21.9l0-1.2h-5.2l0,1.1L175.5,21.9z M174.3,15.3c1.7,0.4,3.1,1.3,4.5,2.5l-0.7,0.8c-1.1-1.1-2.8-2-4.6-2.5L174.3,15.3z"/>
		<path class="st2" d="M182.6,17.3c-0.5-0.8-1.2-1.4-2.1-1.7l0.6-0.7c0.7,0.2,1.7,0.9,2.2,1.8L182.6,17.3z M183.6,18.6
			c-0.3,1.8-0.9,3.5-1.9,4.9l-1-0.5c1-1.1,1.8-3.8,2-4.8l0.9,0.3c1-0.5,1.8-1.3,2.2-2.1h-2.1v-1h2.1V14h-1.5v-1h1.5v-1.5h1l0,1.5
			l2.3,0v-1.5h1l0,1.5h1.5v1h-1.5v1.4h2.1l0,1h-2.1c0.6,0.9,1.9,2,2.7,2.2l-0.7,0.8c-0.7-0.3-1.3-0.8-1.6-1.1l0,2.4h-4.1v0.8
			c0,0.2,0,0.5,0.4,0.5h3.6c0.5,0,0.5-0.5,0.6-1.3h1c-0.1,1.1-0.1,2.3-1.4,2.3h-4.1c-0.8,0-1.1-0.6-1.1-1.1v-3.5
			c-0.3,0.2-0.7,0.6-1.3,0.9L183.6,18.6z M183.2,14.3c-0.8-1.1-1.5-1.4-2.2-1.6l0.8-0.7c0.8,0.3,1.6,0.8,2.1,1.6L183.2,14.3z
			 M187,16.4c-0.1,0.5-0.5,0.9-0.7,1.2h3.6c-0.2-0.3-0.6-0.7-0.8-1.2L187,16.4z M186.5,19.8h3.1l0-1.2h-3.1V19.8z M186.9,14l0,1.4
			l2.3,0l0-1.4H186.9z"/>
		<path class="st2" d="M196.9,19.2l-1.7,0.7l-0.8-0.8l2.4-1v-2.7l-0.9,0c-0.2,0.7-0.4,1.2-0.9,2.1l-0.9-0.5c0.8-1.3,1.1-2.5,1.3-4
			l1,0.3c0,0.4-0.1,0.8-0.1,1.2l0.7,0v-2.8l1,0l0,2.8h1.2v1h-1.2v2.3l1.3-0.5v1.1l-1.3,0.6v4.9h-1V19.2z M199.1,19.3v-1l4.6,0v-1.2
			h1l0,1.2h1.6v1h-1.6v3c0,0.5-0.2,1-0.8,1.2c-0.6,0.2-1.3,0.1-1.7,0.1l-0.4-1c0.7,0,1.1,0.1,1.6,0.1c0.2,0,0.4-0.1,0.4-0.4v-2.9
			H199.1z M206,16v1h-6.7v-1h2.7l0-1.8h-2.3v-1h2.2v-1.7l1,0v1.7h2.4l0,1h-2.4V16H206z M201.7,21.9c-0.6-0.8-1.2-1.3-2.2-1.7
			l0.7-0.7c0.9,0.3,1.6,0.9,2.2,1.7L201.7,21.9z"/>
		<path class="st2" d="M210.9,21.8c1.5,0.4,2.2,0.7,2.4,0.1c0.2-0.7,0.5-1.8,0.6-3.2h-2.6c-0.2,1.8-1,3.6-2.6,4.8l-0.8-0.8
			c2.4-1.6,2.5-4.4,2.5-6.5H209V12h5.7v4.3l-3.4,0v1.4h3.6c0,1.3-0.1,2.5-0.4,3.6c-0.2,0.8-0.3,1.5-1,1.8c-0.5,0.2-1.3,0.1-2.4-0.2
			L210.9,21.8z M210.1,13v2.3h3.6V13H210.1z M217.1,12.8l0,7.9H216l0-7.9H217.1z M216.2,22.5h1.7c0.2,0,0.4-0.2,0.4-0.4l0-10.5l1,0
			v11c0,0.6-0.4,1-1,1h-1.4L216.2,22.5z"/>
		<path class="st2" d="M221.4,18.6c1.7-1,3.1-2.5,4.2-4.1l0.8,0.6c-0.4,0.7-1.2,1.6-1.7,2.2v6.3h-1v-5.2c-0.2,0.2-1,0.7-1.5,1.1
			L221.4,18.6z M221.6,14.9c1.4-1,2.5-2.2,3.4-3.6l0.8,0.6c-0.9,1.4-2,2.8-3.3,3.7L221.6,14.9z M227.8,22.4c0.7,0.1,1.3,0.1,1.9,0
			c0.1,0,0.3-0.1,0.3-0.3v-5.6h-3.5v-1l7,0v1l-2.4,0l0,5.7c0,0.5-0.2,0.8-0.6,1c-0.4,0.2-1.7,0.2-2.3,0.2L227.8,22.4z M232.6,13.3
			h-5.8l0-1l5.8,0V13.3z"/>
		<path class="st2" d="M234.9,22l1.3-0.4v-6.2h1.1v5.9l1.2-0.4l0-7.5h-2.9v-1h6.3v1h-2.3v3l1.7,0v1l-1.7,0v3.2l2.6-1v1.2l-6.5,2.3
			L234.9,22z M246.1,15c-0.1,1.8-0.7,3.8-1.6,5.2c0.7,1,1.6,2,2.8,2.6l-0.7,0.9c-1-0.6-2.1-1.6-2.8-2.7c-0.7,1.2-1.7,2-2.9,2.7
			l-0.7-0.8c1.3-0.7,2.3-1.7,3.1-2.7c-0.4-0.9-0.7-1.5-0.9-2.6c-0.1,0.4-0.4,0.9-0.7,1.5l-1-0.4c1-1.4,1.7-3.4,1.7-5.1
			c0-0.5,0.1-1.7,0.1-2.2l1.1,0.1c0,0.9-0.1,1.9-0.2,2.6l3.8,0v1L246.1,15z M243.2,15c0,0.2-0.1,0.5-0.1,0.8
			c0.1,0.9,0.5,2.5,0.9,3.4c0.6-1.3,1-2.7,1.1-4.2H243.2z"/>
		<path class="st2" d="M260.6,23H251c-0.7,0-1-0.6-1-1.3v-8.6l-0.9,0v-1l11.4,0v1H251l0,8.3c0,0.4,0.1,0.5,0.6,0.5h9V23z
			 M255.4,21.1h-3.8v-3.8l3.8,0V21.1z M252.6,18.4v1.8l1.8,0l0-1.8L252.6,18.4z M258.8,16.6l-6.1,0l0-3h6.1V16.6z M253.7,15.7h4
			v-1.2h-4V15.7z M260,17.4v3.7h-3.9v-3.7H260z M259,18.3l-1.8,0v1.7l1.8,0L259,18.3z"/>
		<path class="st2" d="M262.1,22l1.3-0.4v-6.2h1.1v5.9l1.2-0.4l0-7.5h-2.9v-1h6.3v1h-2.3v3l1.7,0v1l-1.7,0v3.2l2.6-1v1.2l-6.5,2.3
			L262.1,22z M273.3,15c-0.1,1.8-0.7,3.8-1.6,5.2c0.7,1,1.6,2,2.8,2.6l-0.7,0.9c-1-0.6-2.1-1.6-2.8-2.7c-0.7,1.2-1.7,2-2.9,2.7
			l-0.7-0.8c1.3-0.7,2.3-1.7,3.1-2.7c-0.4-0.9-0.7-1.5-0.9-2.6c-0.1,0.4-0.4,0.9-0.7,1.5l-1-0.4c1-1.4,1.7-3.4,1.7-5.1
			c0-0.5,0.1-1.7,0.1-2.2l1.1,0.1c0,0.9-0.1,1.9-0.2,2.6l3.8,0v1L273.3,15z M270.4,15c0,0.2-0.1,0.5-0.1,0.8
			c0.1,0.9,0.5,2.5,0.9,3.4c0.6-1.3,1-2.7,1.1-4.2H270.4z"/>
		<path class="st2" d="M282.2,14.3c-0.2,0.5-0.4,1-0.7,1.4h3.6v-1.8h1.1l0,1.8h1.8l0,1l-1.8,0v5.6c0,0.4-0.3,0.9-0.7,1
			c-0.6,0.1-1.3,0-2,0.1c-0.1-0.4-0.2-0.7-0.3-1.1c0.7,0,1.2,0.1,1.7,0.1c0.2,0,0.3-0.2,0.3-0.3v-5.3l-3.8,0V16
			c-0.1,0.3-0.3,0.6-0.5,0.9v6.8l-1,0v-5.4c-0.2,0.2-0.5,0.6-0.9,0.8l-0.4-0.4c-0.1,1.9-0.4,3.4-1.7,4.9l-0.9-0.6
			c1-1.3,1.6-2.3,1.6-4.3l0-6h4.6c-0.2-0.2-0.7-0.6-1.3-0.8c0.4-0.3,0.7-0.4,1-0.7c0.7,0.4,1.3,1,1.7,1.5l4.3,0v1l-9.2,0v4.4
			c1.2-1.1,2-2.6,2.7-4.4L282.2,14.3z M282.7,17.6c0.8,0.6,1.6,1.9,2,2.6l-0.9,0.6c-0.5-1-1-1.8-1.8-2.5L282.7,17.6z"/>
	</g>
</g>
</svg>
